<?xml version="1.0" standalone="no"?>
<!DOCTYPE svg PUBLIC "-//W3C//DTD SVG 1.1//EN" "http://www.w3.org/Graphics/SVG/1.1/DTD/svg11.dtd" >
<svg xmlns="http://www.w3.org/2000/svg" xmlns:xlink="http://www.w3.org/1999/xlink" version="1.1">
<metadata>
Created by FontForge 20230101 at Wed Aug 13 09:28:28 2008
 By Unknown
Copyright (c) Tom Tor, 2001. All rights reserved.
</metadata>
<defs>
<font id="TT" horiz-adv-x="500" >
  <font-face 
    font-family="TT"
    font-weight="400"
    font-stretch="normal"
    units-per-em="1000"
    panose-1="2 0 5 0 2 0 0 9 0 4"
    ascent="800"
    descent="-200"
    x-height="794"
    cap-height="805"
    bbox="15.25 -465 1235 1346"
    underline-thickness="20"
    underline-position="-133"
    unicode-range="U+0005-203A"
  />
<missing-glyph horiz-adv-x="1000" 
 />
    <glyph glyph-name=".notdef" horiz-adv-x="1000" 
 />
    <glyph glyph-name=".null" horiz-adv-x="0" 
 />
    <glyph glyph-name="nonmarkingreturn" horiz-adv-x="552" 
 />
    <glyph glyph-name="space" unicode=" " horiz-adv-x="552" 
 />
    <glyph glyph-name="space" unicode="&#xa0;" horiz-adv-x="552" 
 />
    <glyph glyph-name="space" unicode="&#xa0;" horiz-adv-x="552" 
 />
    <glyph glyph-name="breve" 
d="M380 1131q0 -4 -1 -6l-72 -276q-6 -23 -25 -38.5t-44 -15.5q-12 0 -26.5 11t-22.5 22l-167 224q-2 4 -2 6q-1 9 3 17t11 14.5t16 10t18 3.5q5 0 11.5 -7t9.5 -11l154 -224l61 262q2 9 5 16.5t8 14.5q3 1 11.5 3.5t10.5 3.5q5 -1 8.5 -1.5t7.5 -1.5q11 -2 17 -6.5t9 -17.5
q0 -2 -1 -4v1z" />
    <glyph glyph-name="ring" 
d="M495 997q-18 0 -35 7t-31.5 19t-24.5 28t-13 34l-9 52q-6 35 15 60.5t56 25.5h52q18 0 35 -7t31.5 -19t24.5 -28t13 -34l9 -52q6 -35 -15 -60.5t-56 -25.5h-52zM566 1127q-4 20 -18 37t-37 17h-44q-24 0 -32.5 -17.5t-5.5 -37.5l6 -32q4 -20 17.5 -35t36.5 -15h45
q23 0 32.5 16t5.5 36l-6 32v-1z" />
    <glyph glyph-name="fraction" 
d="M215 -308q-6 -14 -13.5 -27t-14.5 -26q-17 5 -31 13t-17 25q-2 9 1 14l447 1096q9 20 29 22q16 0 25.5 -13.5t4.5 -27.5z" />
    <glyph glyph-name="fi" 
d="M621 1156q-24 0 -68 -4.5t-90.5 -13t-87.5 -22t-58 -31.5q-32 -31 -47 -62t-20 -65q-3 -17 -4 -34.5t-2 -37.5q0 -19 0.5 -40t0.5 -51h387q3 1 7 1q3 0 9 -2q8 -2 14 -10t6 -17v-942q0 -12 -12.5 -21.5t-26.5 -9.5q-13 0 -22 8.5t-9 20.5v912h-353v-613q0 -25 -0.5 -70
t4.5 -95q4 -42 14.5 -82.5t36.5 -70.5h-79q-20 23 -31 59t-16 78q-5 44 -5.5 85.5t-0.5 70.5v641h-83q-11 0 -18.5 7.5t-7.5 18.5q0 12 8 20.5t19 8.5h82v96q0 85 27.5 147t72.5 107q23 23 69 38t99 25t104 14t83 4q21 0 30 -10.5t8 -22.5q-1 -13 -11 -24t-29 -11z" />
    <glyph glyph-name="fl" 
d="M733 -150q0 -24 -10.5 -39.5t-23.5 -15.5q-12 0 -22.5 14t-10.5 39v1303q-37 -2 -85 -8t-93.5 -15.5t-83.5 -23t-55 -30.5q-78 -76 -78 -186v-91h253q9 0 16.5 -9t8.5 -25q0 -15 -8 -24.5t-19 -9.5h-251v-604q0 -27 -0.5 -71t4.5 -92q5 -42 16.5 -82t40.5 -72l-78 -1
q-24 26 -36 64t-17 79t-5 80v69v633h-92q-12 0 -20.5 8.5t-8.5 22.5q0 13 9 22t22 9h90v64q0 93 25 156.5t75 113.5q25 25 76 43.5t109.5 31t114.5 19t92 6.5q3 0 6 -1q2 1 3 1q2 0 4 1q8 0 16.5 -8.5t11.5 -20.5q2 -6 3 -12t1 -12v-1326z" />
    <glyph glyph-name="Lslash" 
d="M293 -195q-4 231 -7.5 459.5t-2.5 463.5h-157v67h158v423h64v-423h206q9 0 15.5 -7t8.5 -16q2 -13 -5 -28.5t-18 -15.5h-206q0 -217 3.5 -428.5t6.5 -428.5q15 -2 27 -2h25q88 0 173.5 2.5t173.5 2.5h18t18 -1q2 0 3 1t1 2l12 -71h-517v0z" />
    <glyph glyph-name="lslash" 
d="M346 727q0 -275 0.5 -544t1.5 -541l-62 1q-2 272 -4.5 541t-1.5 544h-157v67h157l3 551h65l-3 -551h206q9 0 15.5 -7t8.5 -16q2 -13 -5 -28.5t-18 -15.5z" />
    <glyph glyph-name="exclam" unicode="!" horiz-adv-x="359" 
d="M190 53q-16 0 -30.5 7t-18.5 24v5v685q0 13 9 22t22 9q11 0 19.5 -7.5t10.5 -18.5l1 -6v-653q0 -17 -0.5 -33t-0.5 -33zM207 -141q-1 -16 -1.5 -31t-0.5 -26l-12 -1q-17 0 -31.5 6.5t-17.5 23.5q-3 16 -1 41q0 11 0.5 21t0.5 20q0 13 9 22t22 9q11 0 19.5 -7.5
t10.5 -18.5t2.5 -27t-0.5 -33v1z" />
    <glyph glyph-name="quotedbl" unicode="&#x22;" horiz-adv-x="334" 
d="M272 686q-1 -18 -2.5 -35t-3 -32t-2.5 -25.5t-1 -15.5q-1 -10 -6 -17t-13 -7q-18 0 -21 20q-3 17 -5 44t-4 57t-3 58t-3 47q-1 9 6 15.5t18 6.5l22 1q8 0 14.5 -5t8.5 -13q1 -5 -1 -34t-4 -65zM124 686q-3 -35 -5.5 -67t-2.5 -41q-1 -10 -6.5 -17t-14.5 -7q-17 0 -20 20
q-3 17 -5 44t-4 57t-3 58t-3 47q-1 9 6 15.5t17 6.5l22 1q8 0 15 -5.5t9 -13.5q1 -4 -1 -33t-5 -65h1z" />
    <glyph glyph-name="numbersign" unicode="#" horiz-adv-x="932" 
d="M664 420l-27 -251h170q8 0 12.5 -7.5t6.5 -16.5q3 -15 -4 -26.5t-21 -11.5h-169l-31 -291q-1 -11 -11 -16t-23 -5q-9 0 -17.5 3.5t-9.5 11.5q0 1 0.5 13.5t2.5 31.5t4.5 43t5.5 50t5.5 51.5t5 47t4 37.5t2.5 23h-243l-30 -291q-1 -11 -13 -16t-26 -5q-8 0 -14.5 3
t-7.5 11q0 2 0.5 14t2.5 31.5t4 43.5t5 50q3 25 5.5 50.5t5 47t4 38t2.5 23.5l-168 1q-17 0 -22 18q-2 14 6.5 28.5t20.5 14.5l170 -1l26 252h-169q-18 0 -21 18q-1 6 1 14t6 15t9 11.5t11 4.5h169l32 301q1 11 12 16t25 5q8 0 15 -3t8 -11q0 -2 -1 -14.5t-2.5 -32.5t-4 -45
t-5.5 -52t-6 -53t-5.5 -48t-4 -38.5t-2.5 -24.5h244l32 301q1 11 9.5 16t20.5 5q9 0 18.5 -3.5t11.5 -11.5q0 -1 -1 -14t-3 -32.5t-4.5 -45t-5.5 -52.5t-6 -53t-5.5 -48t-4 -38.5t-2.5 -23.5l170 -1q11 0 16 -9.5t4 -21.5t-7.5 -21.5t-18.5 -9.5h-169zM332 168h244l28 252
h-244z" />
    <glyph glyph-name="dollar" unicode="$" horiz-adv-x="978" 
d="M684 34q0 -63 0.5 -124t-1.5 -122h-12q-17 0 -31.5 7t-17.5 24q-2 11 -2.5 36t-0.5 54q1 29 1.5 56t-0.5 45q-26 -6 -49.5 -8t-49.5 -2v-108t-2 -104h-13q-17 0 -31.5 6.5t-17.5 23.5q-2 11 -2 35q0 23 1 52q0 27 0.5 52.5t0.5 42.5h-329l-1 71h329l1 290h-265
q-6 0 -11 5l-6 4l-7 2q-8 8 -10 18.5t-3 19.5q0 36 6 78t17.5 83.5t28.5 77.5t40 60q38 38 92.5 59.5t114.5 28.5v248q0 13 10.5 22t24.5 9q11 0 20 -7.5t11 -18.5v-6v-245h77h24v246q0 13 9 22t23 9q11 0 20 -7.5t11 -18.5v-6v-245h155v-71h-155v-304h141q14 0 23.5 -10
t11.5 -24q1 -5 1 -16q0 -53 -10.5 -104t-32 -95.5t-55 -80.5t-79.5 -60zM510 728v-304h101v304h-101zM674 120q59 45 86 107t30 134h-116v-241zM447 725q-62 -9 -103 -35.5t-66.5 -66.5t-37 -91t-14.5 -108h221v302v-1zM562 72q26 3 49 10v278h-101v-290h48q2 0 4 2zM528 -1
q11 1 21.5 0.5t21.5 -0.5q5 0 5 -5t-5 -5h-42q-5 0 -5 5q0 4 5 5h-1z" />
    <glyph glyph-name="percent" unicode="%" horiz-adv-x="825" 
d="M196 320q-16 0 -30 6t-25 16t-17.5 24t-6.5 30v324q0 32 23.5 53t55.5 21l71 1q15 0 29.5 -5.5t25.5 -15.5t17.5 -24t6.5 -30v-325q0 -32 -23.5 -53.5t-55.5 -21.5h-71zM234 -143l-27 -57q-7 3 -13.5 6t-12.5 7q-14 9 -17 25q-1 8 2 17l433 925q4 8 11.5 13.5t17.5 5.5
q11 0 19 -7t10 -18q1 -8 -2 -17zM552 -200q-32 0 -55.5 21.5t-23.5 53.5v325q0 32 24 53t56 21h70q31 0 55 -21t24 -53v-325q0 -32 -23.5 -53.5t-55.5 -21.5h-71zM295 707q0 19 -11 29.5t-31 10.5h-42q-20 0 -31 -10t-11 -30v-296v-6q2 -15 15 -24.5t27 -9.5l42 -1
q17 0 29.5 12t12.5 29v296v0zM651 187q0 19 -11 29.5t-30 10.5h-42q-20 0 -31 -10.5t-11 -30.5v-296v-6q2 -15 15 -24.5t27 -9.5h42q17 0 29.5 11.5t12.5 28.5v296z" />
    <glyph glyph-name="ampersand" unicode="&#x26;" horiz-adv-x="854" 
d="M780 211q-7 -2 -15 -2h-16t-16 0.5t-18 0.5l1 -364q0 -29 -12.5 -34.5t-43.5 -5.5v-1h-27h-183q-38 0 -71.5 3t-65 13t-62 28.5t-60.5 48.5q-15 15 -26.5 41.5t-20 57t-14.5 59.5t-9 48q-10 55 -17.5 113t-6.5 113q0 26 12 39q10 10 23 10h128q-26 23 -43.5 52t-29 60
t-18 62t-11.5 58q-3 16 -8.5 47t-5.5 63q-1 33 7 53.5t29 20.5h338q11 0 20 -7.5t12 -18.5q2 -14 -7.5 -25t-24.5 -11l-314 1q2 -29 4.5 -54t7.5 -50q3 -17 8.5 -42t13.5 -51t19 -50t25 -39q12 -12 29.5 -24.5t36.5 -22.5t38.5 -16t36.5 -6h55q11 0 20 -7.5t11 -19.5
q2 -14 -7.5 -25t-23.5 -11h-321q2 -52 8.5 -101t14.5 -97q2 -13 7 -37t11.5 -50t16 -49t20.5 -35q23 -23 49.5 -38t55.5 -23h-74q-5 0 -5 -5t5 -6h267h120v335l-94 -1q-11 0 -20 7.5t-12 19.5q-2 14 7.5 25t24.5 11h216q11 0 20 -7.5t11 -18.5q3 -17 -4.5 -24.5t-21.5 -10.5
z" />
    <glyph glyph-name="quotesingle" unicode="'" horiz-adv-x="191" 
d="M114 685q-1 -18 -2.5 -35t-3 -32t-2.5 -25.5t-1 -15.5q-1 -10 -6 -17.5t-13 -7.5t-13.5 6t-7.5 14q-3 17 -5 44.5t-4 57.5t-3 58.5t-3 47.5q-1 9 6 15.5t17 6.5h23q8 0 14.5 -5.5t8.5 -13.5q1 -4 -1 -33t-5 -65h1z" />
    <glyph glyph-name="parenleft" unicode="(" horiz-adv-x="501" 
d="M313 -141q8 0 15 -4.5t9 -12.5q3 -17 -2 -29.5t-22 -12.5q-28 0 -54 4.5t-47.5 16t-36.5 32t-21 52.5q-1 6 -1.5 12t-0.5 13v994q0 28 10 52.5t27 43t41.5 29.5t52.5 11h72l-1 -61l-24 2t-25 1q-23 0 -39 -8.5t-26 -22.5t-14.5 -32t-4.5 -38l2 -948q0 -44 21 -68.5
t68 -25.5h1z" />
    <glyph glyph-name="parenright" unicode=")" horiz-adv-x="494" 
d="M191 1003q-8 0 -15 4.5t-9 12.5q-3 17 2 29.5t22 12.5q28 0 54 -4.5t47.5 -16t36.5 -32t21 -52.5q1 -6 1.5 -12t0.5 -13v-994q0 -28 -10 -52.5t-27 -43t-41 -29.5t-53 -11h-72l1 61l24 -2t25 -1q23 0 39 8.5t26 22.5t14.5 32t4.5 38l-1 948q0 44 -21 68.5t-69 25.5h-1z
" />
    <glyph glyph-name="asterisk" unicode="*" horiz-adv-x="482" 
d="M278 1017q13 -13 31 -29.5t36 -33.5q19 -18 32 -32.5t14 -19.5q2 -7 -3 -12.5t-13 -5.5q-6 0 -11 5l-107 107v-151q0 -16 -15 -16q-12 0 -15 13q-2 10 -2 28v41q1 21 1.5 42.5t0.5 42.5l-107 -107q-5 -5 -12 -5q-13 0 -15 13q-1 8 6 15l105 105h-148q-16 0 -19 13
q-2 8 4 13.5t14 5.5h148q-12 12 -29.5 28.5t-34.5 34.5q-19 18 -32 33t-15 20q-1 6 4 11.5t11 4.5q7 0 13 -6l107 -105v151q0 16 15 16q12 0 15 -13q2 -10 2 -29v-40q-1 -21 -1.5 -42.5t-0.5 -42.5l107 105q6 6 12 6q12 0 14 -11q2 -9 -5 -16l-107 -105h150q6 0 11.5 -4.5
t7.5 -9.5q2 -8 -4 -13t-14 -5h-151z" />
    <glyph glyph-name="plus" unicode="+" horiz-adv-x="556" 
d="M305 393v-178q0 -14 -9.5 -21t-24.5 -7q-10 0 -17.5 6.5t-9.5 16.5q-2 11 -2.5 34.5t0.5 52.5q1 27 1.5 53t0.5 43h-180q-15 0 -22.5 9.5t-7.5 20.5t7.5 20.5t22.5 9.5h180v177q0 14 9 20.5t23 6.5q11 0 19 -6t10 -16q2 -11 2 -35q0 -23 -1 -52q0 -27 -0.5 -52.5
t-0.5 -42.5l179 -1q11 0 19 -6t10 -16q3 -16 -5 -26.5t-23 -10.5h-180z" />
    <glyph glyph-name="comma" unicode="," horiz-adv-x="205" 
d="M124 -247q-7 -14 -16 -28.5t-20 -33.5q-6 -7 -13 -6q-2 0 -4 1t-1 2q-2 6 3 17q3 6 6.5 12.5t6.5 14.5q8 14 14 29.5t3 30.5q-1 8 -10 13l-5 3q-4 2 -6.5 5t-4.5 9q-3 17 -1 42q0 11 0.5 21t0.5 21q0 7 6 12t14 5l24 -1q6 0 11 -4.5t7 -10.5q2 -9 2 -20t-1 -23
q-1 -11 -1.5 -22t-0.5 -21q0 -22 -3.5 -38t-10.5 -30z" />
    <glyph glyph-name="hyphen" unicode="-" horiz-adv-x="478" 
d="M62 311q-10 0 -17 6t-9 15q-3 17 3.5 29.5t21.5 12.5h365q21 0 26 -22q3 -17 -3.5 -29.5t-21.5 -12.5z" />
    <glyph glyph-name="period" unicode="." horiz-adv-x="178" 
d="M92 -196q-16 0 -20 16q-2 9 -2 19t1 21q0 11 0.5 22t0.5 21q0 8 6 14t14 6h28q7 0 12.5 -4.5t6.5 -12.5q2 -9 2 -19t-1 -21q0 -11 -0.5 -22t0.5 -20q0 -8 -6 -14t-14 -6h-28z" />
    <glyph glyph-name="slash" unicode="/" horiz-adv-x="765" 
d="M215 -308q-6 -14 -13.5 -27t-14.5 -26q-17 5 -31 13t-17 25q-2 9 1 14l447 1096q9 20 29 22q16 0 25.5 -13.5t4.5 -27.5z" />
    <glyph glyph-name="zero" unicode="0" horiz-adv-x="903" 
d="M691 -111q-15 -15 -38 -27t-49 -21.5t-52.5 -16.5t-49.5 -12l-10 -2l-10 -2q-10 -3 -20 -3q-11 0 -21 -0.5t-21 0.5q-20 1 -53.5 8.5t-68 19t-65.5 26t-47 30.5q-36 36 -58 79t-30 89q-6 32 -6 63v359q0 69 24 127t69 104q16 16 41.5 28.5t54 22t58 16.5t53.5 11l10 2
t11 3q5 1 10 1.5t10 0.5h27q21 -1 53.5 -9t66.5 -19.5t64 -26t46 -30.5q36 -36 58 -79t30 -90q6 -31 6 -62l1 -360q0 -69 -24.5 -127t-70.5 -103h1zM714 479q0 12 -1 24t-3 23q-3 18 -10.5 39t-19 41.5t-26.5 38t-34 28.5q-85 -50 -112 -145q-48 -157 -94 -313.5t-94 -317.5
q32 -10 62 -17t60 -13q20 3 48.5 9t57 14.5t54 19t39.5 24.5q35 35 54 81.5t19 100.5v363v0zM486 716q-12 3 -24.5 5t-23.5 2q-16 0 -45.5 -6t-60 -15t-57 -20.5t-37.5 -23.5q-35 -35 -54.5 -80t-19.5 -99v-363q0 -26 4 -49q3 -15 10 -36t18 -41.5t25.5 -39t32.5 -28.5
q48 160 93 314t91 309q14 46 38.5 84.5t66.5 73.5q-17 5 -30.5 8t-26.5 5z" />
    <glyph glyph-name="one" unicode="1" horiz-adv-x="580" 
d="M157 -195q-11 0 -20 7.5t-11 18.5q-2 14 7.5 25t23.5 11h174v866h-104q-11 0 -20 7.5t-11 18.5q-2 14 7.5 25t23.5 11h136q11 0 20 -7t11 -18q1 -4 0 -7.5t-1 -7.5v-888h167q11 0 20 -7.5t11 -18.5q2 -14 -7.5 -25t-23.5 -11h-403z" />
    <glyph glyph-name="two" unicode="2" horiz-adv-x="965" 
d="M837 -195h-654l3 75q51 60 99 121.5t101 120.5l283 309q23 25 37.5 60t22 74.5t10 80.5t1.5 77l-149 1h-257q-29 0 -55.5 -20t-46 -49.5t-29.5 -62t-6 -57.5q6 -35 28.5 -61t52.5 -45q45 -28 88.5 -36t89.5 -8l3 -71q-62 0 -119.5 11.5t-114.5 52.5q-25 18 -41.5 34
t-28 33.5t-18 39t-11.5 49.5q-2 11 -1.5 23t0.5 23q1 14 5 28.5t8 27.5q11 32 27 61t39.5 50.5t53.5 34.5t67 13h244q122 0 245 -1q0 -55 -1 -110t-9 -108q-8 -54 -27 -102.5t-56 -90.5q-112 -125 -223 -248.5t-223 -258.5h562l-1 -71h1z" />
    <glyph glyph-name="three" unicode="3" horiz-adv-x="1000" 
d="M756 -102q-31 -32 -62.5 -50.5t-66 -28t-74 -12t-86.5 -2.5h-223h-120l1 70h277q138 0 278 1q5 0 5 5t-5 5h-74q64 19 104 62q12 12 22 38.5t18.5 61t15.5 73t11.5 75t7.5 68.5t4 52h-492q-11 0 -20 7.5t-11 19.5q-2 14 7.5 25t23.5 11h227q18 0 38 6.5t39 17t35.5 23
t27.5 23.5q18 19 32 54.5t24 77t15.5 82.5t6.5 70h-404q-11 0 -20 7.5t-11 18.5q-2 14 7.5 25t23.5 11h429q14 0 22.5 -10t11.5 -24q1 -5 1 -16q0 -36 -6 -86t-18 -100t-29.5 -93.5t-40.5 -66.5l-7 -7t-15 -13l129 -1q14 0 22.5 -9.5t10.5 -23.5q1 -4 1 -8q0 -3 1 -8
q0 -25 -3 -62.5t-8 -80t-13.5 -87t-18.5 -83.5t-23 -70t-28 -47v-1zM483 304q17 2 35.5 1t35.5 -1q5 0 5 -5t-5 -5h-71q-5 0 -5 4q0 5 5 6zM530 -196q17 2 35.5 1t35.5 -1q5 0 4.5 -5t-5.5 -5h-69q-5 0 -5 5q0 4 5 5h-1z" />
    <glyph glyph-name="four" unicode="4" horiz-adv-x="972" 
d="M878 99q-11 -4 -25 -4h-25v-269q0 -14 -10.5 -22.5t-24.5 -8.5q-12 0 -22.5 7t-12.5 19v6v259l-16 -18q-3 -4 -7 -7q-15 -14 -53.5 -31t-89 -34t-108 -33t-111 -28t-98.5 -19.5t-70 -7.5q-8 0 -17.5 0.5t-18.5 3.5t-16 8.5t-9 16.5q0 1 5.5 35t15.5 89.5t23 126.5t27 147
q14 75 27.5 148.5t24.5 134t19 102.5t10 54q2 14 15 22.5t29 8.5q11 0 19 -7t10 -18q0 -2 -5.5 -35t-15 -86t-22.5 -121.5t-27 -141.5q-14 -72 -27.5 -143t-24.5 -130t-19 -101t-11 -56q22 1 62 8.5t87.5 19t99 26t96 29t78 29t46.5 26.5q22 20 37.5 46.5t24.5 55.5v-45
q0 -5 5 -5t5 5v288q0 14 10.5 22.5t24.5 8.5q12 0 22.5 -7t12.5 -19v-6v-291h24h9q5 0 10 -2q8 -2 14.5 -7.5t8.5 -16.5q2 -14 -2.5 -21t-13.5 -11z" />
    <glyph glyph-name="five" unicode="5" horiz-adv-x="1231" 
d="M439 734q2 -29 4.5 -54t7.5 -50q3 -17 8.5 -42t13.5 -51.5t19 -50t25 -37.5q12 -12 29 -24.5t36.5 -22.5t39 -16.5t35.5 -6.5h196q3 0 5 1h-1q2 0 5 -1l106 -1q14 0 22.5 -9.5t11.5 -23.5q1 -4 1 -8q0 -3 1 -8q0 -25 -3 -62.5t-8.5 -80t-13.5 -87t-18.5 -83.5t-23.5 -70
t-28 -47q-33 -35 -67 -54t-71 -28t-79 -10.5t-92 -1.5h-302h-169v70h352q176 0 353 1q5 0 5 5t-5 5h-75q63 18 105 62q12 12 22 38.5t18.5 61t15 73t11.5 75t7.5 68.5t3.5 52q-156 0 -307.5 -0.5t-303.5 2.5q0 10 1.5 20.5t5 19.5t10.5 15t19 6h128q-26 23 -43.5 52t-29 60
t-18 62t-11.5 58q-3 16 -8.5 47t-5.5 62q-1 33 7 54t28 21h659q11 0 20 -7.5t11 -18.5q2 -14 -7.5 -25t-23.5 -11zM684 -195q17 2 35 1t35 -1q5 0 5 -5t-5 -5h-70q-5 0 -5 5q0 4 5 5z" />
    <glyph glyph-name="six" unicode="6" horiz-adv-x="961" 
d="M648 586q-21 -26 -41.5 -52t-42.5 -51l-285 -313q-23 -25 -37.5 -60.5t-22 -75t-10 -80.5t-1.5 -78q83 0 162 0.5t159 0.5h88q31 0 55.5 18t42 44.5t28.5 56.5t14 54q0 2 -1 8t-1 9q-6 35 -29 61t-53 46q-45 28 -89 36t-91 8l-3 71q63 0 120.5 -11.5t115.5 -52.5
q25 -18 42 -34t28 -34t18 -39.5t11 -49.5q2 -11 2 -24v-23q-1 -13 -5 -27t-8 -26q-10 -33 -26.5 -62.5t-40 -52t-53.5 -35.5t-68 -13h-163h-330q0 56 1 111.5t9 109.5t27 103t57 90q129 144 257 285.5t252 290.5l85 -2l-173 -208v1z" />
    <glyph glyph-name="seven" unicode="7" horiz-adv-x="918" 
d="M787 720q-51 -60 -99 -121.5t-102 -119.5l-281 -309q-29 -32 -44 -77.5t-21 -96.5q-6 -49 -6.5 -98.5t-0.5 -92.5l-74 -1q0 56 1 111.5t9 109.5t27 102.5t56 89.5q111 124 222.5 248.5t223.5 258.5h-325t-317 -1l1 72h732l-3 -75h1z" />
    <glyph glyph-name="eight" unicode="8" horiz-adv-x="924" 
d="M302 -195q-46 0 -80 23.5t-58 59.5t-38.5 78.5t-21.5 80.5q-6 32 0.5 70t21 74.5t34.5 68t42 49.5q3 2 4 6.5t0 7.5q-2 9 -7 17.5t-10 15.5q-18 24 -31 45.5t-22 43.5t-15 45.5t-11 51.5q-6 32 -8.5 64.5t-3.5 64.5q-1 31 -1 61q0 31 -1 63h488q44 0 78 -18t58.5 -47
t40 -67t22.5 -77q1 -5 1 -11v-12v-25q0 -10 -3 -20l-6 -20q-12 -50 -32.5 -84t-58.5 -65q-3 -2 -4 -6.5t1 -7.5q2 -9 6.5 -17t8.5 -14q35 -47 50.5 -91t25.5 -98q14 -79 15.5 -155.5t2.5 -154.5h-489h1zM715 559q-4 23 -14.5 51.5t-28 53.5t-41.5 42.5t-54 17.5h-87h-143
q-43 0 -86 0.5t-90 -0.5q-1 -45 1.5 -88t10.5 -86q6 -36 13 -60t18.5 -44.5t29 -41t44.5 -48.5q20 0 49 1t62.5 3t69 5.5t67 8t57 11.5t39.5 16q15 10 30.5 27t27.5 38t19.5 43.5t6.5 42.5q0 3 -2 7h1zM701 109q-6 37 -12 61t-16 43.5t-27 39.5t-45 49q-29 0 -78.5 -2
t-101.5 -7t-97.5 -13.5t-66.5 -21.5q-16 -10 -31.5 -31t-27.5 -46t-18.5 -51t-5.5 -46q0 -2 0.5 -4t-0.5 -4q2 -12 8 -31.5t15 -42t21 -45t26.5 -40.5t31.5 -29.5t36 -11.5h88q78 0 157 -0.5t161 -0.5q2 60 -2 118.5t-15 116.5v-1z" />
    <glyph glyph-name="nine" unicode="9" horiz-adv-x="1083" 
d="M896 575q-8 -55 -26.5 -103.5t-56.5 -86.5l-574 -580l-104 -1l519 512q-33 2 -80.5 5t-96.5 10t-92 18.5t-67 29.5q-24 17 -41 33t-28 34t-17.5 39.5t-11.5 48.5q-2 11 -2 23q0 13 1 25q0 7 1 14t3 15t5 15.5t5 14.5q11 31 27 59t38.5 49t52 33.5t66.5 12.5h142l346 -1
v-110q0 -55 -8 -109h-1zM425 724q-30 0 -54.5 -18t-42.5 -44.5t-28.5 -56t-13.5 -53.5q0 -2 1 -8t2 -8q6 -35 28.5 -61t52.5 -45q15 -9 41.5 -16t59 -12t68.5 -8t69.5 -5t62 -2.5t45.5 -0.5l44 46q23 25 37 60t22 74.5t10 80.5t1 78q-82 0 -160.5 -0.5t-157.5 -0.5h-87z" />
    <glyph glyph-name="colon" unicode=":" horiz-adv-x="219" 
d="M92 241q-16 0 -20 16q-3 16 -1 41q0 11 0.5 21t0.5 19q0 8 6 14t14 6h28q7 0 12.5 -4.5t6.5 -11.5q3 -16 1 -41q0 -11 -0.5 -21t0.5 -19q0 -8 -6 -14t-14 -6h-28zM92 -196q-16 0 -20 16q-2 9 -2 19t1 21q0 11 0.5 22t0.5 21q0 8 6 14t14 6h28q7 0 12.5 -4.5t6.5 -12.5
q2 -9 2 -19t-1 -21q0 -11 -0.5 -22t0.5 -20q0 -8 -6 -14t-14 -6h-28z" />
    <glyph glyph-name="semicolon" unicode=";" horiz-adv-x="283" 
d="M137 242q-16 0 -20 16q-3 16 -1 41q0 11 0.5 21t0.5 19q0 8 6 14t14 6h23q16 0 20 -16q3 -16 1 -41q0 -11 -0.5 -21t-0.5 -19q0 -8 -6 -14t-14 -6h-23zM164 -247q-7 -14 -16 -28.5t-20 -33.5q-6 -7 -13 -6q-2 0 -4 1t-1 2q-2 6 3 17q3 6 6.5 12.5t6.5 14.5q8 14 14 29.5
t3 30.5q-1 8 -10 13l-5 3q-4 2 -6.5 5t-4.5 9q-3 17 -1 42q0 11 0.5 21t0.5 21q0 7 6 12t14 5l24 -1q6 0 11 -4.5t7 -10.5q2 -9 2 -20t-1 -23q-1 -11 -1.5 -22t-0.5 -21q0 -22 -3.5 -38t-10.5 -30z" />
    <glyph glyph-name="less" unicode="&#x3c;" horiz-adv-x="450" 
d="M368 241q-3 0 -9 3l-256 121q-12 6 -25 22t-15 28q-5 27 7 44t34 28l248 128l4 1q14 0 23.5 -12.5t12.5 -26.5q3 -17 -2 -23t-20 -13l-243 -114l243 -107q8 -4 15 -8t13 -11q1 -10 0.5 -20.5t-3.5 -19.5t-9.5 -14.5t-18.5 -5.5h1z" />
    <glyph glyph-name="equal" unicode="=" horiz-adv-x="475" 
d="M54 467q-18 0 -21 19q-2 14 3 25.5t18 11.5h330q17 0 22 -19q2 -14 -3 -25.5t-19 -11.5h-330zM54 313q-18 0 -21 19q-2 14 3 25.5t18 11.5l330 1q17 0 22 -19q2 -14 -3 -25.5t-19 -11.5z" />
    <glyph glyph-name="greater" unicode="&#x3e;" horiz-adv-x="450" 
d="M120 243q-6 -2 -9 -2q-13 0 -18.5 5t-8.5 16q-2 4 -3 7.5t-3 7.5q-1 2 0 11.5t2 12.5q6 6 13 10t15 8l243 108l-243 114q-5 2 -13 7.5t-10 11.5q-1 9 1 18.5t7 18t12.5 13.5t15.5 5h6l247 -129q12 -6 25.5 -18.5t15.5 -23.5q5 -25 -7.5 -46.5t-33.5 -31.5z" />
    <glyph glyph-name="question" unicode="?" horiz-adv-x="567" 
d="M316 339q-21 -12 -41 -25t-36 -29t-26.5 -36.5t-10.5 -48.5q0 -8 0.5 -16t1.5 -16q1 -21 -4.5 -32t-31.5 -11q-9 0 -16 4t-9 12q-3 15 -1 36q0 10 0.5 19.5t0.5 17.5q0 48 22 77.5t58 55.5q11 8 23 16t23 16q11 7 20.5 13t17.5 11q8 6 15.5 12t13.5 14q13 14 19.5 33.5
t6.5 48.5q0 34 3 68q0 18 -1 35.5t-5 33.5q-6 33 -21 52t-36 28.5t-46 11.5t-49 1q-25 -1 -48 -3t-42 0q-19 1 -29.5 6t-12.5 17q-2 14 3.5 24t19.5 10h183q26 0 49 -8.5t42 -24t31.5 -36.5t16.5 -47q3 -16 4 -41t0 -53q0 -28 -0.5 -54.5t-1.5 -44.5q0 -30 -9 -52t-24 -39
t-34 -30.5t-40 -25.5h1zM169 -195q-9 0 -16 4t-9 12q-2 10 -2 29q0 18 1 38q0 21 0.5 40.5t0.5 30.5q0 21 25 21l9 -1q9 0 16.5 -3.5t9.5 -11.5q2 -10 2 -28q0 -19 -1 -39q0 -21 -0.5 -40.5t-1.5 -30.5q0 -10 -6.5 -15.5t-17.5 -5.5h-10z" />
    <glyph glyph-name="at" unicode="@" horiz-adv-x="1148" 
d="M860 467q1 -7 1 -15v-17t-0.5 -17.5t-1.5 -16.5q2 -98 2 -195t2 -200q71 19 71 88l1 532q0 12 -3 24q-7 39 -35 66.5t-70 27.5h-514q-25 0 -43.5 -10t-31.5 -26t-19.5 -37t-6.5 -44v-663q0 -5 0.5 -10.5t1.5 -10.5q8 -42 37.5 -61t66.5 -19h462q14 0 21 -9t6.5 -20.5
t-7 -20.5t-19.5 -9h-495q-24 0 -46 8t-39.5 23t-29.5 35.5t-16 44.5q-3 13 -3 26v720q0 28 10 52.5t27 43t41.5 29.5t52.5 11h579q24 0 46 -8.5t39 -23.5t29 -35.5t16 -44.5q1 -6 1.5 -12t0.5 -12v-593q0 -36 -12 -58t-33.5 -34.5t-50 -16.5t-61.5 -4q-71 0 -140.5 -1.5
t-140.5 -2.5q-46 0 -90 15.5t-80 43t-61 66.5t-33 87q-4 24 1 48.5t16 47.5t26 43t31 35q38 37 85 57t105 20h237v50q0 5 -5 5t-5 -5v-19v-21q0 -5 5 -5t5 5q0 14 -0.5 27t-3.5 26q-5 27 -21.5 50t-39 40t-49 27.5t-52.5 14.5q-2 2 -4 2l-156 1l1 63h131q45 0 87 -15
t76.5 -42t59.5 -64.5t35 -83.5l2 -3h1zM555 351q-41 0 -74.5 -13t-59 -35.5t-43 -54t-26.5 -68.5q3 -20 8 -34.5t12.5 -27t18 -24t25.5 -25.5q34 -32 65.5 -43t72.5 -11h242v335z" />
    <glyph glyph-name="A" unicode="A" horiz-adv-x="783" 
d="M641 -205q-11 0 -20 7t-11 18v6v478h-439v-503h-70v677q0 66 24 124t69 100q16 15 46.5 27.5t69.5 23t83 18.5t86.5 13.5t80 8t62.5 2.5q17 0 31.5 -6.5t17.5 -23.5l1 -5v-934q0 -13 -9 -22t-22 -9zM610 736q-20 -1 -51.5 -4t-68.5 -7.5t-75.5 -11t-72.5 -15t-60 -18.5
t-39 -22q-23 -22 -37.5 -46t-22 -49t-10.5 -52.5t-3 -57.5q0 -20 0.5 -40.5t0.5 -46.5h439v369v1z" />
    <glyph glyph-name="B" unicode="B" horiz-adv-x="799" 
d="M578 373q-17 -17 -36.5 -32t-46.5 -30q71 -38 114.5 -97.5t54.5 -126.5q6 -30 6 -60l1 -215q-8 -2 -20.5 -3.5t-26.5 -2.5t-27.5 -2t-22.5 -1q-21 0 -54.5 2.5t-72.5 8t-80.5 13.5t-79 18.5t-67.5 23.5t-46 29q-35 34 -57.5 72t-30.5 83q-2 14 -3 27t-1 27v346
q0 79 20 138.5t73 110.5q15 15 44 27.5t65 23t76.5 18.5t80 13.5t74.5 8.5t59 3q7 0 20.5 -0.5t28 -1.5t28 -2.5t19.5 -3.5v-229q0 -34 -6 -59.5t-18 -46.5t-29 -40.5t-39 -40.5v1zM601 737q-21 -1 -53.5 -3.5t-70 -7t-77.5 -11.5t-74.5 -15t-61.5 -18t-40 -22
q-35 -33 -53.5 -79t-18.5 -97v-314q0 -13 -0.5 -26.5t-0.5 -27.5t1 -27t3 -27q6 -35 24 -64.5t45 -55.5q13 -12 40.5 -22.5t63.5 -19t76 -15t77.5 -11t69 -7t49.5 -2.5q0 26 1 52.5t2 54.5q0 27 -1 53t-5 48q-8 44 -30.5 81t-55 63.5t-72.5 41.5t-83 15q-15 0 -28.5 9
t-16.5 23q-3 18 11.5 31t32.5 14q53 0 95.5 19t77.5 52q8 8 15.5 15t13.5 15q15 15 24 28q10 16 15 35t5 45v177v0z" />
    <glyph glyph-name="C" unicode="C" horiz-adv-x="654" 
d="M564 -195q-21 0 -51.5 2.5t-65.5 7.5t-72 13t-70.5 18.5t-61 23.5t-43.5 29q-36 35 -58 77.5t-30 88.5q-6 30 -6 59v351q0 69 24.5 125.5t70.5 101.5q23 23 69.5 40t100.5 29t107 18t90 6q21 0 31 -11t9 -24.5t-11 -24.5t-29 -11q-28 0 -74 -4.5t-94 -14t-89.5 -23
t-59.5 -31.5q-35 -34 -54.5 -78.5t-19.5 -96.5v-354q0 -12 1 -24t3 -24q6 -35 23 -69t46 -61q19 -19 61.5 -33.5t90.5 -24.5t93.5 -15.5t69.5 -5.5q14 0 28 -7.5t16 -21.5q2 -9 -2.5 -15t-11.5 -9.5t-15.5 -5t-15.5 -1.5z" />
    <glyph glyph-name="D" unicode="D" horiz-adv-x="727" 
d="M545 -101q-23 -23 -69 -40.5t-99.5 -29.5t-106 -18t-89.5 -6q-20 0 -32.5 6t-14.5 24v6v914q0 23 9 31.5t35 8.5q21 0 52 -2.5t66.5 -7.5t72.5 -13t71 -18.5t61.5 -23.5t43.5 -29q36 -35 58 -77.5t30 -88.5q6 -30 6 -59v-352q0 -68 -24.5 -124.5t-69.5 -100.5zM568 476
q0 25 -4 45q-6 36 -23.5 69.5t-46.5 60.5q-18 18 -58 31t-85 22t-87.5 14t-67.5 6v-859q29 2 72.5 8t88 16t82.5 23.5t56 31.5q35 34 54 79t19 98v355v0z" />
    <glyph glyph-name="E" unicode="E" horiz-adv-x="616" 
d="M520 -200q-21 0 -52 2.5t-66 7.5t-71.5 13t-70 18.5t-61 23.5t-43.5 29q-36 35 -58 79t-30 90q-6 32 -6 61v352q0 68 24 127.5t70 103.5q24 23 70.5 40.5t100 29.5t107 18t90.5 6q21 0 31 -11t9 -24.5t-11 -24.5t-29 -11q-28 0 -74 -4.5t-94 -13.5t-89.5 -22.5
t-60.5 -31.5q-24 -23 -38 -47t-22 -50.5t-11 -54.5t-3 -59q0 -20 0.5 -41.5t0.5 -47.5h367q9 0 15 -7.5t8 -17.5q2 -14 -4.5 -26t-18.5 -12h-367q0 -27 -1 -56t-1 -58t1 -57.5t6 -51.5q6 -36 22.5 -71t44.5 -62q19 -19 61.5 -33.5t91 -24.5t94 -15.5t69.5 -5.5q14 0 28 -7.5
t16 -21.5q2 -9 -2.5 -15t-11.5 -9.5t-15.5 -5t-15.5 -1.5z" />
    <glyph glyph-name="F" unicode="F" horiz-adv-x="685" 
d="M564 724q-19 0 -46 -2t-58.5 -6.5t-64.5 -10.5t-62 -14.5t-52.5 -18.5t-35.5 -22q-24 -23 -38.5 -46.5t-23 -48.5t-11.5 -52t-3 -58q0 -20 0.5 -41.5t0.5 -48.5h363q9 0 15.5 -7.5t8.5 -15.5q2 -14 -4.5 -26.5t-18.5 -12.5l-364 -1q0 -41 -1 -88t0 -97q0 -50 2 -98
t10 -87q5 -27 15 -60t33 -57h-74q-20 22 -30.5 52t-15.5 58q-9 51 -9.5 102t-0.5 103v353q0 69 24.5 126t70.5 101q24 23 70.5 40.5t101 29.5t108 18.5t90.5 6.5q22 0 32 -11t9 -24.5t-11.5 -24.5t-29.5 -11z" />
    <glyph glyph-name="G" unicode="G" horiz-adv-x="752" 
d="M615 -195q-22 0 -58.5 2.5t-79.5 8t-89 13t-87 18t-73.5 23.5t-48.5 29q-36 35 -58 78t-30 88q-6 30 -6 59v352q0 68 24 124.5t69 100.5q24 23 70.5 40.5t100.5 29.5t107.5 18t90.5 6q21 0 31 -11t9 -24.5t-11 -24.5t-29 -11q-28 0 -74 -4.5t-94 -13.5t-89.5 -22.5
t-59.5 -31.5q-35 -34 -54.5 -78.5t-19.5 -97.5v-354q0 -12 1 -24t3 -24q6 -35 23 -69t45 -62q13 -12 41 -22.5t64.5 -19t77.5 -15t79.5 -11t70.5 -7.5t50 -3v179q0 11 -1 22.5t-3 23.5q-8 44 -31 81.5t-56 64.5t-73.5 42t-84.5 15q-19 0 -31 11t-13.5 24.5t8.5 24.5t36 11
q56 0 108.5 -19t95 -53.5t71.5 -82.5t39 -105q6 -30 6 -60l-1 -232q-16 -2 -34 -4.5t-32 -2.5z" />
    <glyph glyph-name="H" unicode="H" horiz-adv-x="859" 
d="M449 -197q28 26 58 63.5t54.5 80.5t40.5 87.5t16 84.5v191q-7 -1 -26.5 -2t-48 -1.5t-63.5 -0.5h-72t-73 0.5t-67 1t-55 0.5h-34q0 -131 1.5 -258.5t-2.5 -254.5h-12q-17 0 -31.5 6.5t-17.5 23.5v5v942q0 13 9 22t22 9q11 0 19.5 -7.5t10.5 -18.5l1 -5v-402h34t54 0.5
t67 1t73 0.5h72t63.5 -0.5t48.5 -1t26 -2.5l1 429h70l-1 -257l1 -418q0 -40 -12.5 -86t-33.5 -90t-48.5 -82t-56.5 -62z" />
    <glyph glyph-name="I" unicode="I" horiz-adv-x="409" 
d="M212 -205q-11 0 -19.5 7t-10.5 18l-1 6v948q0 13 9 22t22 9q11 0 20 -7.5t11 -18.5v-5v-948q0 -13 -9 -22t-22 -9z" />
    <glyph glyph-name="J" unicode="J" horiz-adv-x="518" 
d="M357 791h16l-1 -251l1 -422q0 -40 -13 -85t-34 -88t-48.5 -79.5t-56.5 -60.5h-89q28 26 58 62.5t55 78t41 85t16 83.5l-1 356q0 65 0.5 129.5t0.5 132.5h-131q-9 0 -15.5 7.5t-8.5 17.5q-2 14 5 26t20 12h187z" />
    <glyph glyph-name="K" unicode="K" horiz-adv-x="831" 
d="M617 -197v319q-5 12 -13.5 26t-18 28.5t-20.5 27t-21 21.5q-14 12 -41 22.5t-61.5 18.5t-72.5 14.5t-74 11t-66 7.5t-49 4v-477q0 -13 -9 -22t-22 -9q-11 0 -20 7t-10 18v6l-5 942q0 13 9 22t22 9q11 0 20 -7t11 -18v-6l1 -404q20 1 51.5 4t68 7.5t75 11t72 15t60 18.5
t38.5 21q44 43 61 104v-73q0 -5 5 -5t6 5q0 81 -0.5 162t-0.5 162h68q1 -29 2 -57t2 -55q0 -41 -2.5 -79.5t-12.5 -74t-29 -68.5t-51 -64q-12 -11 -30.5 -20.5t-41.5 -17t-48.5 -14t-51.5 -12.5q24 -5 50 -11.5t50 -14.5t44 -17.5t32 -21.5q35 -35 57.5 -76.5t30.5 -86.5
q2 -15 3 -30l2 -30v-121q0 -61 -1 -122h-69z" />
    <glyph glyph-name="L" unicode="L" horiz-adv-x="599" 
d="M549 -205q-32 0 -83.5 5.5t-106 17t-102.5 29t-73 41.5q-36 36 -57.5 81t-29.5 92q-6 32 -6 63q-1 117 -0.5 232.5t0.5 232.5q0 51 1 102.5t-1 103.5h70q0 -170 -0.5 -337t1.5 -337q0 -13 1 -25.5t4 -25.5q6 -36 22 -72t45 -64q19 -19 61.5 -33.5t91 -24.5t93.5 -15.5
t69 -5.5q14 0 28 -7.5t17 -21.5q2 -9 -2.5 -15t-11.5 -9.5t-15.5 -5t-15.5 -1.5z" />
    <glyph glyph-name="M" unicode="M" horiz-adv-x="1158" 
d="M678 795q60 5 116.5 -12.5t102 -52.5t77 -84.5t41.5 -109.5q5 -26 5 -51v-51v-630l-70 -1q0 177 0.5 351t-0.5 350q0 2 -2 4q-5 49 -26.5 89t-55 69.5t-76 46.5t-89.5 21l-146 -618q-5 -22 -7.5 -45.5t2.5 -47.5q7 -38 34 -68.5t63 -52t75.5 -34.5t72.5 -16v-57
q-45 1 -96.5 17t-97.5 45t-80 69t-43 89q-5 29 3 53l84 335l-102 331q-49 -4 -92 -22t-76 -47.5t-53.5 -69.5t-25.5 -87q-2 -2 -2 -4q-1 -176 -1 -350q0 -173 -1 -349l-70 1l1 628v41q0 70 26 131t72 105t108 67t132 17h6h2l-6 6q8 -6 15.5 -11t9.5 -9l84 -264l64 264
q1 3 7.5 7.5t14.5 6.5z" />
    <glyph glyph-name="N" unicode="N" horiz-adv-x="1226" 
d="M961 87q1 -5 1.5 -9.5t0.5 -9.5q7 -40 29.5 -77t54.5 -67t71 -49t80 -23v-28q0 -15 -1 -29q-50 1 -99 22t-90 56t-70.5 80.5t-40.5 95.5q-1 1 -15.5 29t-38.5 73t-54.5 103t-63.5 119q-32 62 -63.5 122t-58 110t-44.5 85t-24 45q-48 -4 -90 -21.5t-74.5 -47t-52.5 -68.5
t-25 -86q-2 -2 -2 -4q-1 -177 -1 -353v-354l-69 1v637v40q0 69 26 129.5t71 104t106 66t131 16.5h6h1l-5 6q9 -6 15 -10.5t9 -10.5l310 -587l-1 601l69 1v-353q0 -175 1 -352q0 -2 2 -4z" />
    <glyph glyph-name="O" unicode="O" horiz-adv-x="864" 
d="M687 -111q-15 -15 -38 -27t-49 -21.5t-52.5 -16.5t-49.5 -12l-10 -2l-10 -2q-10 -3 -20 -3q-11 0 -21 -0.5t-21 0.5q-20 1 -53.5 8.5t-68 19t-65.5 26t-47 30.5q-36 36 -58 79t-30 89q-6 32 -6 63v359q0 69 24 127t69 104q16 16 41.5 28.5t54 22t58 16.5t53.5 11l10 2
t11 3q5 1 10 1.5t10 0.5h27q21 -1 53.5 -9t66.5 -19.5t64 -26t46 -30.5q36 -36 58 -79t30 -90q6 -31 6 -62l1 -360q0 -69 -24.5 -127t-70.5 -103h1zM710 478q0 24 -3 48q-7 36 -24.5 70t-45.5 63q-12 12 -40 23.5t-59 20.5t-60 14.5t-44 5.5q-16 0 -45.5 -6t-60 -15
t-57 -20.5t-37.5 -22.5q-35 -35 -54.5 -80.5t-19.5 -99.5v-364q0 -12 1 -24t3 -24q6 -35 23 -69.5t45 -62.5q11 -11 39 -22t59.5 -20t61.5 -16t46 -10q20 3 48.5 9t57 14.5t54 19t39.5 24.5q35 35 54 81.5t19 100.5v363v-1z" />
    <glyph glyph-name="P" unicode="P" horiz-adv-x="945" 
d="M321 35q2 -10 3 -14q6 -32 24 -63t44.5 -56t58.5 -42t65 -20v-22t-1 -22q-47 1 -89 15.5t-75 41.5t-56 65t-34 86l-2 3l-1 79q-38 -42 -84.5 -67.5t-98.5 -27.5v22t1 22q33 4 65 20.5t57.5 41.5t42 57t17.5 66q2 48 1 97.5t-2 98.5l-2 379h311q52 0 95.5 -16.5t77 -46.5
t55.5 -72t31 -93v-34q-1 -18 -7.5 -44.5t-17 -53t-23 -50t-24.5 -35.5q-37 -36 -83.5 -56t-103.5 -20h-246l1 -235q0 -3 1 -4h-1zM319 730v-390h238q43 0 81 10t67 39q9 9 19 30.5t18 46t15 48t10 37.5q-16 92 -67 135.5t-142 43.5h-239z" />
    <glyph glyph-name="Q" unicode="Q" horiz-adv-x="878" 
d="M764 -199q-5 28 -16 59.5t-28 63.5q-10 -12 -16.5 -20t-13.5 -15q-15 -15 -37.5 -27t-48.5 -21.5t-52.5 -16.5t-48.5 -11l-10 -2t-11 -3q-10 -3 -20 -3h-42q-20 1 -53 8t-68.5 19t-66.5 26.5t-46 30.5q-36 36 -58 79t-30 89q-6 32 -6 63v359q0 69 24 127t70 104
q16 16 41 28.5t53.5 22t58 16.5t53.5 11l10 2t10 3q5 1 10.5 1.5t10.5 0.5h27q20 -1 53 -8.5t67 -19.5t64.5 -27t45.5 -31q73 -73 88 -168q6 -31 6 -62l1 -360q0 -73 -31 -139q11 -12 21.5 -28.5t19.5 -34t15.5 -34.5t9.5 -30q2 -13 3 -26t3 -26h-63h1zM714 478q0 24 -3 48
q-7 36 -24.5 70t-46.5 63q-12 12 -39.5 23.5t-58.5 20.5t-59.5 14.5t-43.5 5.5q-16 0 -45.5 -6t-60 -15t-57.5 -20.5t-38 -22.5q-35 -35 -54.5 -80.5t-19.5 -99.5v-364q0 -12 1 -24t3 -24q6 -35 23 -69.5t46 -62.5q11 -11 39 -22t59.5 -20t61 -16t44.5 -10q20 3 48.5 9
t58 14.5t55 20t39.5 25.5q12 12 27 33q-19 14 -35.5 24.5t-33 17.5t-34 11.5t-37.5 6.5q-1 17 -1.5 33t-0.5 32q43 -1 87 -17.5t86 -46.5q8 24 11 45t3 41v363v-1z" />
    <glyph glyph-name="R" unicode="R" horiz-adv-x="964" 
d="M229 80q-2 -2 -3 -5q0 -68 -0.5 -135t-1.5 -135h-70l2 200q0 25 0.5 47t3.5 43q2 20 7 40t15 43q-1 155 -1.5 308t-1.5 308h373q63 0 117.5 -19.5t96 -56t69.5 -88t38 -113.5q2 -11 2 -24v-23q-1 -23 -9.5 -56t-21.5 -66t-29 -62t-31 -44q-26 -26 -58 -45.5t-71 -33.5
v-38q0 -18 4 -37q6 -35 23.5 -73.5t42 -76.5t53.5 -72.5t57 -60.5l-90 -1l-6 6q-26 26 -50.5 55t-45 60.5t-35 65t-20.5 67.5q-4 23 -4 45v46q-60 -5 -119.5 -3t-116.5 2q-23 0 -47.5 1.5t-46.5 -0.5q-9 -1 -13 -11q-5 -14 -8 -28.5t-5 -29.5h1zM250 724l1 -505h306
q53 0 100 19t82 54q11 12 23 38t22 56t18 59t11 46q-9 51 -30 94t-53 74t-75.5 48t-97.5 17h-307z" />
    <glyph glyph-name="S" unicode="S" horiz-adv-x="895" 
d="M384 721q-45 -5 -82 -23t-66 -47q-18 -19 -32 -56t-23 -79t-14 -84t-7 -71h587q14 0 23 -10t12 -24q1 -5 1 -16q0 -25 -3 -61t-8.5 -76.5t-13.5 -82.5t-18.5 -79.5t-23.5 -67t-28 -45.5q-42 -42 -95.5 -68t-117.5 -26h-361l-1 68h377q2 0 4 2q45 5 82.5 25t66.5 49
q18 19 32 64.5t24 99t16 104.5t7 81h-130h-457q-14 0 -23 10t-12 24q-1 4 -1 7q0 4 -1 8q0 36 6 87t17.5 102.5t29 96t40.5 68.5q45 45 101 69.5t126 24.5h342v-72q-94 0 -186 0.5t-186 0.5q-3 0 -3 -2z" />
    <glyph glyph-name="T" unicode="T" horiz-adv-x="664" 
d="M339 721l1 -715v-12t-1 -12q19 -60 62 -88t99 -33v-28q0 -15 -1 -29q-30 1 -67 9t-70.5 24.5t-58.5 41.5t-31 60q-2 15 -3 38t-2 49q0 26 0.5 49.5t1.5 38.5q0 152 -0.5 302t-0.5 305h-243v74h309l-4 8q1 -2 20.5 -3.5t48 -2.5t62 -1.5t61.5 -0.5t47 -0.5l19 -0.5
q9 0 15.5 -7t8.5 -17q1 -7 -0.5 -15.5t-5 -16t-8 -12.5t-10.5 -5h-249z" />
    <glyph glyph-name="U" unicode="U" horiz-adv-x="950" 
d="M796 109q0 -69 -24.5 -127t-69.5 -104q-15 -15 -38.5 -27t-50 -21.5t-53.5 -16.5t-50 -11q-7 -2 -18 -5q-5 -1 -9.5 -1.5t-8.5 -0.5h-43q-20 1 -53 8t-68 19t-66 27t-46 31q-73 73 -88 167q-6 32 -6 63v685h71v-690q0 -26 4 -49q6 -35 23 -69.5t45 -61.5q12 -11 39.5 -22
t59.5 -20t61.5 -16t45.5 -11q20 3 48.5 9t57 14.5t54 19.5t39.5 25q35 35 54 81.5t19 100.5v689h71v-685v-1z" />
    <glyph glyph-name="V" unicode="V" horiz-adv-x="864" 
d="M615 -112q-16 -15 -46.5 -27.5t-70 -23t-83.5 -18.5t-86.5 -13.5t-79.5 -8t-63 -2.5q-17 0 -31.5 6.5t-17.5 23.5v5v944q0 13 9 22t22 9q11 0 19.5 -7.5t10.5 -18.5l1 -5l-1 -920q20 1 52 4t68.5 7.5t75 11t73 15t61 18.5t38.5 22q35 35 53.5 84.5t17.5 101.5v340
q0 170 1 341l70 -1v-338q0 -167 -1 -338q0 -67 -23.5 -128.5t-68.5 -105.5z" />
    <glyph glyph-name="W" unicode="W" horiz-adv-x="1284" 
d="M1011 -112q-23 -23 -60.5 -40t-80 -29t-86.5 -18t-79 -6q-17 0 -31.5 6.5t-18.5 23.5q-2 10 -2 20t1 21q0 11 0.5 24t0.5 33q-12 -14 -18.5 -21.5t-11.5 -13.5q-15 -15 -46 -27.5t-70 -23t-83.5 -18.5t-87 -13.5t-79.5 -8t-63 -2.5q-17 0 -31.5 6.5t-17.5 23.5v5v944
q0 13 9 22t22 9q11 0 19.5 -7.5t10.5 -18.5l1 -5v-920q20 1 51.5 4t68.5 7.5t75.5 11.5t72.5 15.5t60.5 18.5t38.5 22q35 34 53.5 84t17.5 101v340q0 170 1 341h69v-944q66 3 124 18t101 46t68 80t25 120v352v328h70v-676q0 -69 -24 -129.5t-69 -105.5h-1z" />
    <glyph glyph-name="X" unicode="X" horiz-adv-x="820" 
d="M390 248q-43 -5 -80 -23t-65 -47q-12 -12 -21.5 -38.5t-17.5 -61.5t-14.5 -74.5t-11.5 -77.5t-8 -70.5t-4 -52.5l-59 1q1 26 4 63t8 79t13 85t18 81.5t22 68.5t27 45q8 8 18 17t28 23q-17 -1 -25 -1.5t-15 -1.5h-14t-13 1q-14 2 -23.5 8.5t-11.5 20.5l-1 5l1 477
q0 13 8.5 22t21.5 9q11 0 19.5 -7t10.5 -18v-6l1 -453q20 1 51 4t67.5 7.5t74.5 11t71.5 14.5t59.5 18t38 22q41 40 55 82.5t15 96.5q1 17 1 35v38v144h69q0 -57 0.5 -112.5t-0.5 -112.5q-1 -65 -24.5 -119t-66.5 -96q-11 -11 -27 -18.5t-40 -16.5q14 -6 29.5 -18t31 -26
t28.5 -27l22 -22q14 -15 25.5 -41t19.5 -55.5t14 -57.5t9 -47q10 -55 16.5 -111t6.5 -110h-59q-3 53 -9.5 106t-15.5 107q-2 12 -6.5 34.5t-11 47t-15 46t-18.5 32.5q-31 32 -68.5 48.5t-77.5 20.5q-2 2 -4 2h-36l-37 1q-2 0 -4 -2zM708 506q0 18 -1 36.5t1 35.5
q1 5 5.5 4.5t4.5 -5.5v-71q0 -5 -5 -5t-5 5z" />
    <glyph glyph-name="Y" unicode="Y" horiz-adv-x="864" 
d="M205 497q-1 -1 -1 -3q2 -46 22 -94t52 -80q12 -12 38 -22t60.5 -18.5t73 -15t74 -11.5t65.5 -8t47 -4v554h71q0 -146 0.5 -289.5t-0.5 -289.5v-50q0 -23 -2 -44q-2 -45 -10 -82q-8 -38 -27 -72t-55 -69q-15 -15 -46 -28.5t-70.5 -25t-84 -21t-87 -16t-80 -10t-62.5 -3.5
q-11 0 -26.5 4t-18.5 18q-3 17 12.5 27.5t32.5 10.5q19 0 51 3t70.5 9t79 14t76.5 18t63.5 20.5t39.5 22.5q26 25 41 51.5t22 55.5t8 61.5t1 70.5q-22 1 -56.5 4t-74.5 8.5t-82.5 13t-80.5 17.5t-67.5 23t-45.5 28q-35 35 -57.5 77t-30.5 87q-3 15 -4 30t-1 30q-1 54 0 106
t1 106q0 21 1 42t-1 42l69 -1v-298v1z" />
    <glyph glyph-name="Z" unicode="Z" horiz-adv-x="973" 
d="M861 -44q-23 -29 -60 -56t-80 -48t-88 -34t-86 -13h-131h-261q0 56 0.5 111t8.5 108q8 54 27 102.5t56 90.5q112 125 223.5 248.5t223.5 258.5h-561l1 69q54 0 107 0.5t107 0.5h435v-74q-49 -62 -98 -123t-103 -119l-282 -309q-23 -25 -37.5 -60.5t-22.5 -75t-10.5 -80.5
t-1.5 -77h322q41 0 84.5 16.5t85.5 41.5t78.5 55t62.5 58v-90v-1z" />
    <glyph glyph-name="bracketleft" unicode="[" horiz-adv-x="490" 
d="M258 -374q-11 0 -20 6.5t-14 17.5q-3 6 -8.5 20t-13.5 32t-16.5 39.5t-17.5 43.5q-19 45 -33.5 81t-16.5 44q-1 5 -1 10v10v860q0 6 2 10.5t4 9.5l101 246q8 22 34 22q13 0 23 -8.5t13 -21.5q1 -10 -2 -20q-26 -62 -50.5 -123.5t-52.5 -122.5v-818v-19q0 -10 -1 -20
q8 -17 24.5 -55.5t34 -80.5t31.5 -76.5t15 -43.5q3 -17 -7.5 -29.5t-27.5 -12.5v-1z" />
    <glyph glyph-name="backslash" unicode="\" horiz-adv-x="622" 
d="M571 -209q-12 -5 -22 -5q-9 0 -18 5t-12 13l-501 1228q-2 4 -2 8q-3 15 6 26t23 10q8 0 16 -4t12 -12l497 -1202q6 -14 10.5 -29t9.5 -30q-5 -2 -9.5 -4t-9.5 -4z" />
    <glyph glyph-name="bracketright" unicode="]" horiz-adv-x="525" 
d="M326 -93q-1 -2 -2 -4.5t-3 -5.5l-101 -246q-8 -22 -34 -22q-13 0 -23 8.5t-13 21.5q-1 10 2 20q26 62 50.5 123.5t52.5 122.5v822v19q0 10 1 20q-7 17 -24 55.5t-34.5 80.5t-31 76.5t-15.5 43.5q-3 17 7.5 29.5t27.5 13.5q11 0 20 -6t14 -17q5 -14 22 -53t34 -83
q19 -45 33.5 -81t16.5 -44q1 -5 1 -10v-10v-864q0 -4 -2 -10h1z" />
    <glyph glyph-name="asciicircum" unicode="^" horiz-adv-x="432" 
d="M365 466q-5 0 -10 0.5t-10 1.5q-12 12 -18 27l-90 245l-99 -243q-2 -5 -7.5 -14t-11.5 -9q-17 0 -34.5 7.5t-21.5 24.5q0 3 4 14t11 27.5t16.5 37.5t20.5 43q10 22 20 43.5t18.5 39.5t15 31t8.5 19q11 23 26 32t41 9q6 0 14.5 -4t16.5 -10t14 -13t9 -14l104 -254l3 -4v-3
q2 -14 -11 -23.5t-29 -9.5v-1z" />
    <glyph glyph-name="underscore" unicode="_" horiz-adv-x="694" 
d="M62 -269q-10 0 -16.5 6t-8.5 15q-3 17 3 29.5t21 12.5h575q22 0 25 -22q3 -17 -3 -29.5t-21 -12.5z" />
    <glyph glyph-name="grave" unicode="`" horiz-adv-x="622" 
 />
    <glyph glyph-name="a" unicode="a" horiz-adv-x="862" 
d="M469 722l-3 3h-288v70h259q54 0 105 -18t93 -50.5t72 -78t42 -101.5l3 -3v-56q0 -27 1 -55q4 -158 4 -313t-2 -312l-370 -4q-63 0 -117 20t-95 56.5t-68.5 88t-38.5 113.5q-2 11 -2 23q0 13 1 24q1 23 9.5 55.5t21 65.5t28.5 61.5t31 43.5q90 89 230 89h302l-1 68
q0 8 -5 6t-5 -5v-2v-25q0 -5 5 -5t5 5q0 51 -17.5 91.5t-54.5 78.5q-31 31 -68 46.5t-77 20.5v-1zM379 382q-54 0 -100 -21t-82 -53q-18 -17 -30 -41.5t-20 -51.5q-8 -28 -14 -56t-11 -52q9 -50 30.5 -94t54.5 -76.5t77 -51.5t98 -19h305v515z" />
    <glyph glyph-name="b" unicode="b" horiz-adv-x="807" 
d="M231 854v-36q33 -1 84.5 -7t104.5 -17.5t100 -29t71 -41.5q36 -35 58 -77.5t30 -89.5q6 -30 6 -60l-1 -374q0 -69 -24.5 -127t-69.5 -103q-23 -23 -69.5 -40.5t-100.5 -29.5t-107 -18t-90 -6q-20 0 -32.5 6t-14.5 24v6l-1 1384h56v-7l1 -241v-75v-30v-9v-1zM613 497
q0 22 -3 46q-7 36 -24.5 69.5t-46.5 61.5q-19 18 -59 31t-85.5 22t-88.5 13.5t-68 5.5v-888q29 2 73 8t88.5 16t83.5 23.5t57 31.5q35 35 54 81.5t19 99.5v378v1z" />
    <glyph glyph-name="c" unicode="c" horiz-adv-x="759" 
d="M593 -195q-21 0 -51.5 2.5t-65.5 7.5t-72 13t-70.5 18.5t-61 23.5t-43.5 29q-36 35 -58 77.5t-30 88.5q-6 30 -6 59v351q0 69 24.5 125.5t70.5 101.5q23 23 69.5 40t100.5 29t107 18t90 6q21 0 31 -11t9 -24.5t-11 -24.5t-29 -11q-28 0 -74 -4.5t-94 -14t-89.5 -23
t-59.5 -31.5q-35 -34 -54.5 -78.5t-19.5 -96.5v-354q0 -12 1 -24t3 -24q6 -35 23 -69t45 -61q19 -19 61.5 -33.5t91 -24.5t94 -15.5t69.5 -5.5q14 0 28 -7.5t16 -21.5q2 -9 -2.5 -15t-11.5 -9.5t-15.5 -5t-15.5 -1.5z" />
    <glyph glyph-name="d" unicode="d" horiz-adv-x="826" 
d="M654 -166q0 -20 -13 -28t-35 -8q-32 0 -84 5.5t-106.5 17.5t-103 30t-73.5 42q-36 35 -58 78.5t-30 90.5q-6 30 -6 60v375q0 69 24.5 125.5t70.5 101.5q23 23 68 40t96.5 28.5t103.5 18t90 7.5v36q0 4 -5 5.5t-5 -5.5v-1h10v1v1v1v9v30v75v246l-5 -5q2 2 2.5 3t1.5 2t1 2
h57l-1 -1385v1zM591 747q-28 -1 -72 -6t-88.5 -14t-83.5 -22t-57 -31q-35 -34 -54.5 -78.5t-19.5 -98.5l1 -378q0 -12 1 -24t3 -24q6 -36 23 -70.5t45 -61.5q12 -12 35 -22.5t50.5 -19t58.5 -15t60.5 -11t55 -7.5t42.5 -4v887v0z" />
    <glyph glyph-name="e" unicode="e" horiz-adv-x="732" 
d="M165 295v-174q0 -12 1 -24t3 -24q6 -35 23 -69t45 -61q13 -12 37 -23t53.5 -19.5t62 -15.5t63.5 -11.5t57 -7t42 -2.5q14 0 28 -7.5t17 -21.5q2 -9 -2.5 -15t-11.5 -9t-15.5 -4.5t-15.5 -1.5q-32 0 -83.5 5.5t-105.5 17t-102 29.5t-73 42q-36 35 -58 77.5t-30 88.5
q-6 30 -6 59v351q0 68 24.5 125t70.5 100q23 23 69.5 40.5t100.5 29.5t107 18t89 6q3 0 5.5 0.5t5.5 0.5q11 0 20 -7.5t11 -18.5v-6v-443q0 -14 -11 -19.5t-28 -5.5h-393zM534 723q-28 -1 -71.5 -6t-88 -14t-83 -22t-56.5 -31q-35 -34 -54.5 -78t-19.5 -97v-118h373v366v0z
" />
    <glyph glyph-name="f" unicode="f" horiz-adv-x="589" 
d="M590 1144q-29 -4 -58.5 -8.5t-58.5 -12.5t-54.5 -21t-46.5 -34q-30 -29 -45.5 -57.5t-22.5 -60.5q-7 -29 -7 -66q-1 -18 -1 -38v-46h257q9 0 15.5 -7.5t8.5 -17.5q2 -14 -4.5 -27t-19.5 -13h-257v-609q0 -26 -0.5 -51t-0.5 -51q1 -26 3 -52t7 -53q5 -26 15 -58t32 -55
h-72q-22 23 -32.5 54t-15.5 60q-8 46 -9 91t-1 91v636h-88q-11 0 -19 6.5t-10 17.5q-2 14 6.5 24.5t22.5 10.5h88v61q0 81 21.5 145t75.5 117q24 24 55.5 42t67.5 30.5t74 19t75 6.5q13 0 23.5 -5.5t12.5 -17.5q3 -18 -8.5 -33.5t-28.5 -17.5z" />
    <glyph glyph-name="g" unicode="g" horiz-adv-x="922" 
d="M756 504q-2 -24 -6 -46t-13 -51l12 6q36 -49 48 -108l3 -4v-75t1 -75q2 -85 5 -174t-3 -173l-365 -2q-33 0 -76.5 10.5t-83 31t-69.5 50t-37 68.5q-6 34 4 63t33 50q46 42 102.5 67t125.5 25h298v107q0 4 -3 5t-5 -1q-6 30 -20 68q-13 -18 -23 -30t-21 -22
q-17 -18 -49 -33.5t-68.5 -27t-73 -18t-63.5 -6.5q-4 0 -8 0.5t-9 1.5l-10 2l-10 2q-21 4 -50 10.5t-58.5 16.5t-56 23t-43.5 29q-35 35 -56.5 77t-29.5 87q-2 11 -3 21.5t-2 24.5h-1v12q4 66 27.5 118t64.5 93q15 15 39.5 27.5t52 22t56 16.5t51.5 11q5 1 11 2t12 3
q12 3 23 3q24 0 55 -5t63 -14.5t62.5 -22t53.5 -27.5q8 5 24.5 16.5t35.5 23.5t35.5 21t24.5 9q13 0 23.5 -8.5t12.5 -22.5t-5.5 -23.5t-21.5 -18.5l-77 -49q23 -32 36.5 -64.5t18.5 -65.5q2 -10 3 -20.5t3 -24.5v-12v0zM613 678q-12 12 -39 23.5t-58 20t-59.5 13.5t-42.5 5
q-16 0 -45 -5.5t-59.5 -14.5t-57 -20.5t-37.5 -22.5q-39 -38 -59.5 -91t-9.5 -115q6 -35 24 -68t45 -60q12 -12 39.5 -23.5t58 -20t59 -14t42.5 -5.5q17 0 45.5 5.5t59 14.5t57 20.5t37.5 23.5q39 38 59.5 91t9.5 115q-6 35 -24 68t-45 59v1zM434 99q-21 0 -44.5 -3
t-46 -9.5t-42.5 -16.5t-35 -25q-14 -14 -15.5 -33.5t1.5 -37.5q6 -35 25.5 -55.5t46 -31t55.5 -13.5t55 -3h302l-1 227z" />
    <glyph glyph-name="h" unicode="h" horiz-adv-x="957" 
d="M174 -193v1193q0 66 23 120t66 98h84q-19 -18 -38 -43.5t-34 -54t-24 -59t-9 -57.5v-332l15 18q4 4 7 6q15 14 49.5 28t79 26.5t95.5 23t98.5 18t89 11.5t66.5 4q16 0 30 -6.5t17 -22.5l1 -6l-1 -952q0 -12 -8.5 -21t-20.5 -9q-11 0 -19.5 7t-10.5 18v5v929
q-20 -1 -55.5 -5.5t-78 -12t-87.5 -16.5t-84.5 -19.5t-70 -21t-43.5 -21.5q-24 -20 -38 -35.5t-20.5 -32.5t-8.5 -38t-2 -53q-2 -173 -1.5 -344t0.5 -345l-67 1v1z" />
    <glyph glyph-name="i" unicode="i" horiz-adv-x="405" 
d="M166 953q-7 0 -12.5 4.5t-7.5 12.5q-2 9 -2 19t1 21q0 11 0.5 22t0.5 20q0 8 6 14t14 6h28q7 0 12.5 -4.5t6.5 -11.5q2 -9 2 -19t-1 -21q0 -11 -0.5 -22t0.5 -21q0 -8 -6 -14t-14 -6h-28zM216 -171q0 -14 -10.5 -23t-24.5 -9q-12 0 -22 7.5t-12 19.5v5v966h69v-966v0z
" />
    <glyph glyph-name="j" unicode="j" horiz-adv-x="541" 
d="M319 953q-7 0 -12.5 4.5t-7.5 12.5q-2 9 -2 19t1 21q0 11 0.5 22t0.5 20q0 8 6 14t14 6h28q7 0 12.5 -4.5t6.5 -11.5q2 -9 2 -19t-1 -21q0 -11 -0.5 -22t0.5 -21q0 -8 -6 -14t-14 -6h-28zM164 -190q23 21 47 50.5t44 62.5t33 68t13 67v263v473h68v-481q0 -63 1 -126
t-1 -126q-1 -33 -9.5 -69t-23.5 -70t-35 -64t-44 -49z" />
    <glyph glyph-name="k" unicode="k" horiz-adv-x="844" 
d="M736 795q0 -53 0.5 -105t-0.5 -104q-1 -64 -24 -115.5t-65 -93.5q-11 -11 -29 -20t-40.5 -16.5t-47.5 -13.5l-50 -12q24 -5 49 -11.5t48 -14t42.5 -16.5t31.5 -21q34 -33 55 -73.5t29 -84.5q2 -14 3 -28l2 -28q0 -58 -1.5 -115.5t0.5 -115.5h-66v152q0 75 -1 151
q-5 11 -13 25t-17 28t-19 26.5t-19 21.5q-20 18 -67.5 31t-102 22.5t-105.5 14.5t-78 6v-461q0 -11 -13 -20t-27 -9q-11 0 -18.5 6.5t-9.5 17.5l-1 6l-2 1393h68v-874q20 1 50 4t65.5 7.5t72.5 10.5t69.5 14t57.5 18t37 21q67 66 69 170q1 21 2.5 48t2.5 55q2 29 1.5 56
t-3.5 47h64z" />
    <glyph glyph-name="l" unicode="l" horiz-adv-x="660" 
d="M598 -206q-31 0 -80.5 5.5t-101.5 16.5t-98.5 27.5t-70.5 39.5q-35 34 -56.5 75t-29.5 86q-2 14 -3 28t-1 28q-2 281 -0.5 558.5t-0.5 558.5l68 1q0 -282 -0.5 -560.5t1.5 -560.5q0 -25 4 -45q6 -34 22.5 -67t43.5 -59q19 -18 60 -32t87 -23.5t89 -14.5t67 -5
q14 0 27 -7.5t15 -21.5q2 -9 -2 -14.5t-11 -9t-15 -4.5t-15 -1z" />
    <glyph glyph-name="m" unicode="m" horiz-adv-x="1379" 
d="M729 533q-5 47 -25.5 85t-52 65.5t-72 44t-85.5 20.5q-49 -164 -96.5 -323t-95.5 -320l-30 -104t-29 -105q-3 -10 -7 -22t-9 -25q-4 -11 -6.5 -22.5t-3.5 -21.5h-67v657v39q0 67 25 123t69.5 96t103.5 62.5t126 22.5q49 0 96.5 -13t89 -39.5t74 -67t51.5 -95.5l103 197
q5 11 21 14h6q54 5 106 -11.5t95.5 -49.5t73.5 -80.5t40 -105.5q5 -24 5 -48v-48v-653l-66 -1q0 181 0.5 360t-0.5 360q0 2 -2 4q-5 47 -25.5 85t-52 65.5t-71.5 44.5t-85 20l-135 -269q-2 -168 -1 -335t1 -335h-67v538l-144 -288q-22 -44 -49 -88t-62.5 -79.5t-79.5 -58
t-101 -23.5q0 14 0.5 27t1.5 27q23 -1 49.5 10t51.5 28t44.5 37t27.5 37q32 67 64 133.5t66 132.5q32 63 65 125t66 125v42q0 2 -0.5 2.5t-0.5 1.5h-1zM218 533q-2 -2 -2 -4q-1 -119 -1 -243v-267l221 726q-45 -6 -83 -24.5t-66.5 -46t-46.5 -63.5t-23 -78h1z" />
    <glyph glyph-name="n" unicode="n" horiz-adv-x="939" 
d="M210 529q-2 -2 -2 -4q-1 -181 -1 -360v-360h-67v652l-1 40q0 68 25.5 125t70.5 97.5t105 63t128 22.5q56 0 110 -17t98 -49t75 -78.5t41 -106.5q5 -24 5 -48v-49v-652h-69q-65 236 -137 469.5t-143 472.5q-48 -4 -89 -21.5t-72.5 -46t-52 -67t-25.5 -83.5h1zM729 529
q-5 44 -24 81t-49 65t-68 46t-81 24l224 -737v517q0 2 -2 4z" />
    <glyph glyph-name="o" unicode="o" horiz-adv-x="901" 
d="M713 -111q-15 -15 -38 -27t-49 -21.5t-52.5 -16.5t-49.5 -12l-10 -2l-10 -2q-10 -3 -20 -3q-11 0 -21 -0.5t-21 0.5q-20 1 -53.5 8.5t-68 19t-65.5 26t-47 30.5q-36 36 -58 79t-30 89q-6 32 -6 63v359q0 69 24 127t69 104q16 16 41.5 28.5t54 22t58 16.5t53.5 11l10 2
t11 3q5 1 10 1.5t10 0.5h27q21 -1 53.5 -9t66.5 -19.5t64 -26t46 -30.5q36 -36 58 -79t30 -90q6 -31 6 -62l1 -360q0 -69 -24.5 -127t-70.5 -103h1zM736 478q0 24 -3 48q-7 36 -24.5 70t-45.5 63q-12 12 -40 23.5t-59 20.5t-60 14.5t-44 5.5q-16 0 -45.5 -6t-60 -15
t-57 -20.5t-37.5 -22.5q-35 -35 -54.5 -80.5t-19.5 -99.5v-364q0 -12 1 -24t3 -24q6 -35 23 -69.5t45 -62.5q11 -11 39 -22t59.5 -20t61.5 -16t46 -10q20 3 48.5 9t57 14.5t54 19t39.5 24.5q35 35 54 81.5t19 100.5v363v-1z" />
    <glyph glyph-name="p" unicode="p" horiz-adv-x="860" 
d="M273 35q2 -10 3 -14q6 -32 24 -63t44.5 -56t58.5 -42t65 -20v-22t-1 -22q-47 1 -89 15.5t-75 41.5t-56 65t-34 86l-2 3l-1 79q-38 -42 -84.5 -67.5t-98.5 -27.5v22t1 22q33 4 65 20.5t57.5 41.5t42 57t17.5 66q2 48 1 97.5t-2 98.5l-2 379h311q52 0 95.5 -16.5t77 -46.5
t55.5 -72t31 -93v-34q-1 -18 -7.5 -44.5t-17 -53t-23 -50t-24.5 -35.5q-37 -36 -83.5 -56t-103.5 -20h-246l1 -235q0 -3 1 -4h-1zM271 730v-390h238q43 0 81 10t67 39q9 9 19 30.5t18 46t15 48t10 37.5q-16 92 -67 135.5t-142 43.5h-239z" />
    <glyph glyph-name="q" unicode="q" horiz-adv-x="906" 
d="M770 -199q-5 28 -16 59.5t-28 63.5q-10 -12 -16.5 -20t-13.5 -15q-15 -15 -37.5 -27t-48.5 -21.5t-52.5 -16.5t-48.5 -11l-10 -2t-11 -3q-10 -3 -20 -3h-42q-20 1 -53 8t-68.5 19t-66.5 26.5t-46 30.5q-36 36 -58 79t-30 89q-6 32 -6 63v359q0 69 24 127t70 104
q16 16 41 28.5t53.5 22t58 16.5t53.5 11l10 2t10 3q5 1 10.5 1.5t10.5 0.5h27q20 -1 53 -8.5t67 -19.5t64.5 -27t45.5 -31q73 -73 88 -168q6 -31 6 -62l1 -360q0 -73 -31 -139q11 -12 21.5 -28.5t19.5 -34t15.5 -34.5t9.5 -30q2 -13 3 -26t3 -26h-63h1zM720 478q0 24 -3 48
q-7 36 -24.5 70t-46.5 63q-12 12 -39.5 23.5t-58.5 20.5t-59.5 14.5t-43.5 5.5q-16 0 -45.5 -6t-60 -15t-57.5 -20.5t-38 -22.5q-35 -35 -54.5 -80.5t-19.5 -99.5v-364q0 -12 1 -24t3 -24q6 -35 23 -69.5t46 -62.5q11 -11 39 -22t59.5 -20t61 -16t44.5 -10q20 3 48.5 9
t58 14.5t55 20t39.5 25.5q12 12 27 33q-19 14 -35.5 24.5t-33 17.5t-34 11.5t-37.5 6.5q-1 17 -1.5 33t-0.5 32q43 -1 87 -17.5t86 -46.5q8 24 11 45t3 41v363v-1z" />
    <glyph glyph-name="r" unicode="r" horiz-adv-x="717" 
d="M657 745q-28 0 -75.5 -7t-97.5 -18.5t-93 -27t-61 -33.5q-36 -35 -53.5 -80.5t-18.5 -99.5q-5 -336 0 -674h-69q-2 60 -0.5 118.5t1.5 117.5q0 109 -0.5 217.5t0.5 217.5q1 69 24.5 129.5t69.5 105.5q23 23 69 40.5t99.5 29.5t106 18t89.5 6q11 0 25 -3.5t16 -17.5
q2 -13 -8 -26t-23 -13h-1z" />
    <glyph glyph-name="s" unicode="s" horiz-adv-x="917" 
d="M400 721q-45 -5 -82 -23t-66 -47q-18 -19 -32 -56t-23 -79t-14 -84t-7 -71h587q14 0 23 -10t12 -24q1 -5 1 -15q0 -25 -3 -61t-8.5 -77t-13.5 -83.5t-18.5 -80.5t-23.5 -68t-28 -46q-42 -42 -95 -68t-118 -26h-361l-1 71h377q3 0 3 3q90 9 150 71q12 12 22 37.5
t18.5 57.5t15.5 68.5t11.5 71.5t7.5 65.5t4 50.5h-130h-457q-14 0 -23 10t-12 24q-1 4 -1 8t-1 9q0 36 6 87t17.5 102t29 95.5t40.5 67.5q45 45 101 69.5t126 24.5h342v-71h-372q-3 0 -3 -2z" />
    <glyph glyph-name="t" unicode="t" horiz-adv-x="664" 
d="M349 728v-704v-27q0 -14 2 -28q5 -30 21 -49.5t37.5 -31t47 -17t49.5 -7.5q8 -5 14 -11.5t7 -14.5q2 -11 -5 -22t-17 -18q-28 0 -64.5 9.5t-69.5 27.5t-57.5 43.5t-30.5 58.5q-1 5 -1.5 9t0.5 9v773h-157v67h158v423h65v-423h206q9 0 15 -7t8 -16q2 -13 -5 -28.5
t-18 -15.5h-205z" />
    <glyph glyph-name="u" unicode="u" horiz-adv-x="978" 
d="M787 -205q-12 0 -22.5 4.5t-12.5 16.5q-2 8 -2 18v19t0.5 21t0.5 30q-10 -11 -14 -16t-7 -9q-15 -15 -39 -27t-51 -22t-54.5 -17t-50.5 -11l-8 -2t-9 -3q-5 -1 -9 -1.5t-8 -0.5h-43q-19 1 -52.5 8.5t-68.5 19t-66 26.5t-46 31q-73 73 -88 167q-6 32 -6 63v685h71v-690
q0 -12 1 -24t3 -24q6 -35 23 -69.5t46 -62.5q11 -11 39 -22t59.5 -20t61.5 -16t45 -10q20 3 48.5 9t57 14.5t54 19.5t39.5 25q32 32 52 73.5t20 89.5q0 20 0.5 39t0.5 39v629h71v-973q0 -14 -10 -20t-26 -6v-1z" />
    <glyph glyph-name="v" unicode="v" horiz-adv-x="934" 
d="M663 -102q-15 -15 -46 -28t-70.5 -23.5t-83.5 -18.5t-86.5 -13.5t-80 -8.5t-62.5 -3q-17 0 -31.5 6.5t-17.5 23.5v5v931q0 13 9 22t22 9q11 0 19.5 -7.5t10.5 -18.5l1 -5v-907q20 1 52 4t68.5 8t75 12t72.5 15.5t60.5 18.5t38.5 22q35 34 53.5 79t18.5 98v675h70
q0 -169 0.5 -336t-0.5 -336q0 -68 -24 -124t-69 -100z" />
    <glyph glyph-name="w" unicode="w" horiz-adv-x="1241" 
d="M1000 -107q-23 -23 -60.5 -40t-80.5 -29t-87 -18t-79 -6q-17 0 -31.5 6.5t-18.5 23.5q-2 10 -2 20t1 21q0 11 0.5 24t0.5 33q-12 -14 -18.5 -21.5t-12.5 -13.5q-15 -15 -46 -28t-70 -23.5t-83.5 -19t-86.5 -14t-79.5 -8.5t-62.5 -3q-17 0 -31.5 6.5t-17.5 23.5v5v935
q0 13 9 22t22 9q11 0 19.5 -7t10.5 -18l1 -6v-911q20 1 52 4t68.5 8t75 12.5t72.5 16t60 19t38 22.5q35 34 53.5 79t19.5 97v680h70l-1 -934q63 3 120.5 17.5t101.5 44t70 76.5t26 116l-1 680l71 -1q0 -170 0.5 -338t-0.5 -338q0 -69 -24 -124t-69 -100z" />
    <glyph glyph-name="x" unicode="x" horiz-adv-x="918" 
d="M449 249q-48 -2 -87.5 -18t-71.5 -54q-11 -12 -20.5 -39t-17.5 -61.5t-14.5 -74t-11.5 -77t-8.5 -70t-4.5 -52.5l-59 1q1 26 4 63t8 79t13 85t18 81.5t22 68.5t27 45q8 8 18 17t28 23q-17 -1 -25 -1.5t-15 -1.5h-14t-13 1q-14 2 -23.5 8.5t-11.5 20.5l-1 5l1 477
q0 13 8.5 22t21.5 9q11 0 19.5 -7t10.5 -18v-6l1 -453q20 1 51 4t67.5 7.5t74.5 11t71.5 14.5t59.5 18t38 22q41 40 55 82.5t15 96.5q1 17 1 35v38v144h69q0 -57 0.5 -112.5t-0.5 -112.5q-1 -65 -24.5 -119t-66.5 -96q-11 -11 -27 -18.5t-40 -16.5q17 -8 32 -19.5t29 -25.5
t27.5 -27t22.5 -21q14 -15 25.5 -41t19.5 -55.5t14 -57.5t9 -47q10 -55 16.5 -111t6.5 -110h-60q-2 54 -7.5 107t-14.5 107q-9 49 -21.5 89.5t-34.5 70t-56 47.5t-87 22q-1 1 -4 1h-37h-18h-8zM753 506q0 18 -1 36.5t1 35.5q1 5 5.5 4.5t4.5 -5.5v-71q0 -5 -5 -5t-5 5z" />
    <glyph glyph-name="y" unicode="y" horiz-adv-x="858" 
d="M200 497l-2 -4q2 -46 21.5 -94t51.5 -79q12 -12 38.5 -22t60.5 -18.5t72.5 -15t74.5 -11.5t66 -8t47 -4v554h71q0 -146 0.5 -290t-0.5 -290v-49t-2 -44q-2 -45 -10 -82q-8 -38 -27 -72.5t-55 -69.5q-15 -15 -46 -28.5t-70.5 -25t-84 -20.5t-87.5 -15.5t-80.5 -10
t-62.5 -3.5q-14 0 -31 6t-19 21q-3 17 13 25t33 8q21 0 54 3t71.5 8.5t79 13.5t76 17.5t63.5 21t41 24.5q26 25 41 51.5t22 55t8 61t1 70.5q-22 1 -56.5 4t-74.5 8.5t-82.5 13t-80.5 17.5t-67.5 23t-45.5 28q-35 35 -57.5 77t-30.5 87q-3 15 -4 30t-1 30q-1 51 0 100.5
t1 99.5q0 24 1.5 48t-1.5 48l69 -1v-298z" />
    <glyph glyph-name="z" unicode="z" horiz-adv-x="887" 
d="M837 -44q-23 -29 -60 -56.5t-80 -48.5t-88 -34t-86 -13h-131l-261 -1q0 56 1 111.5t9 109.5t27 102.5t55 90.5q112 125 223.5 248.5t223.5 258.5l-560 -2v72h220h403h26v-74q-49 -62 -98 -123t-102 -119l-283 -309q-23 -25 -37.5 -60.5t-22 -75t-10 -80.5t-1.5 -77h321
q41 0 84.5 16.5t85.5 41.5t78.5 55t62.5 58v-90v-1z" />
    <glyph glyph-name="braceleft" unicode="{" horiz-adv-x="475" 
d="M279 -367q-9 0 -17 4.5t-11 12.5q-5 11 -19 44.5t-30 71.5t-28.5 69.5t-13.5 36.5q-1 4 -1 8v9v444l-5 -1l-88 16q-13 2 -21 7t-10 18q-3 15 6 24t24 11l94 9v390q0 5 1.5 8.5t3.5 8.5l87 224q3 8 10.5 13.5t16.5 4.5q11 0 19.5 -6.5t10.5 -17.5q1 -7 -1 -17
q-21 -54 -41.5 -113t-45.5 -111v-883v-34q4 -10 12 -28.5t17.5 -40.5t19.5 -46t18.5 -45t14 -36t6.5 -20q2 -14 -6.5 -25t-22.5 -11v1z" />
    <glyph glyph-name="bar" unicode="|" horiz-adv-x="387" 
d="M203 -373q-16 0 -30.5 6.5t-17.5 23.5v6l-1 1381q0 13 9 22t22 9q11 0 20 -7.5t11 -18.5v-6l1 -1349q0 -17 -0.5 -33t-1.5 -33z" />
    <glyph glyph-name="braceright" unicode="}" horiz-adv-x="525" 
d="M325 334v-444q0 -5 -2 -8.5t-4 -8.5l-86 -224q-3 -8 -10.5 -13.5t-17.5 -4.5q-11 0 -19.5 6.5t-10.5 17.5q-1 8 2 17q21 54 41.5 113t45.5 111v892l1 34q-7 16 -21 47.5t-29 65.5t-26.5 61.5t-13.5 35.5q-2 14 7 25t22 10q20 0 30 -18q4 -10 18 -42.5t30 -69.5
q16 -38 28.5 -68t13.5 -35q1 -4 1 -8v-9v-399l5 1l88 -16q13 -2 20.5 -7t9.5 -18q3 -15 -6 -24t-23 -11z" />
    <glyph glyph-name="quotesinglbase" unicode="&#x201a;" 
d="M126 -247q-7 -14 -16 -28.5t-20 -33.5q-6 -7 -13 -6q-6 0 -6 3q-2 6 3 17q3 6 6.5 12.5t7.5 14.5q8 14 14 29.5t3 30.5q-1 8 -10 13l-5 3q-4 2 -6.5 5t-4.5 9q-3 17 -1 42q0 11 0.5 21t0.5 21q0 7 5.5 12t13.5 5l24 -1q6 0 11 -4.5t7 -10.5q2 -9 2 -20v-23
q-1 -11 -1.5 -22t-0.5 -21q0 -22 -3.5 -38t-10.5 -30z" />
    <glyph glyph-name="florin" unicode="&#x192;" 
d="M1039 1178q-24 0 -68.5 -4.5t-91.5 -13.5t-88.5 -22t-59.5 -30q-71 -71 -71 -171v-143h352q8 0 14.5 -7.5t6.5 -21.5t-7 -22.5t-16 -8.5h-350v-863q0 -85 -22.5 -142.5t-67.5 -103.5q-15 -15 -41.5 -27.5t-59 -22.5t-68.5 -17.5t-71 -12.5t-65.5 -7.5t-52.5 -2.5
q-21 0 -29.5 10t-8.5 22q0 14 10 25t29 10q24 0 68.5 4.5t91.5 13.5t88.5 22t59.5 31q71 71 71 171v281v611h-83q-11 0 -18.5 7.5t-8.5 18.5q0 12 8.5 20.5t19.5 8.5h82q0 34 -0.5 60.5t0.5 51.5q1 24 2.5 46.5t4.5 45.5q8 43 27 82.5t57 77.5q23 23 69.5 40t100 28
t104.5 17t84 6q21 0 30 -10.5t8 -21.5q-1 -14 -11 -25t-29 -11z" />
    <glyph glyph-name="quotedblbase" unicode="&#x201e;" 
d="M246 -247q-7 -14 -16 -28.5t-20 -33.5q-6 -7 -13 -6q-6 0 -6 3q-2 6 3 17q3 6 6.5 12.5t7.5 14.5q8 14 14 29.5t3 30.5q-1 8 -10 13l-5 3q-4 2 -6.5 5t-4.5 9q-3 17 -1 42q0 11 0.5 21t0.5 21q0 7 5.5 12t13.5 5l24 -1q6 0 11 -4.5t7 -10.5q2 -9 2 -20v-23
q-1 -11 -1.5 -22t-0.5 -21q0 -22 -3.5 -38t-10.5 -30zM126 -247q-7 -14 -16 -28.5t-20 -33.5q-6 -7 -13 -6q-6 0 -6 3q-2 6 3 17q3 6 6.5 12.5t7.5 14.5q8 14 14 29.5t3 30.5q-1 8 -10 13l-5 3q-4 2 -6.5 5t-4.5 9q-3 17 -1 42q0 11 0.5 21t0.5 21q0 7 5.5 12t13.5 5l24 -1
q6 0 11 -4.5t7 -10.5q2 -9 2 -20v-23q-1 -11 -1.5 -22t-0.5 -21q0 -22 -3.5 -38t-10.5 -30z" />
    <glyph glyph-name="ellipsis" unicode="&#x2026;" 
d="M542 -196q-16 0 -20 16q-2 9 -2 19t1 21q0 11 0.5 22t-0.5 21q0 8 6 14t14 6h28q7 0 12.5 -4.5t7.5 -12.5q3 -16 1 -41q0 -11 -0.5 -21t-1.5 -19q-2 -6 -7 -13.5t-12 -7.5h-27zM399 -196q-16 0 -20 16q-2 9 -2 19t1 21q0 11 0.5 22t-0.5 21q0 8 6 14t14 6h28
q7 0 12.5 -4.5t7.5 -12.5q3 -16 1 -41q0 -11 -0.5 -21t-1.5 -19q-2 -6 -7 -13.5t-12 -7.5h-27zM246 -196q-16 0 -20 16q-2 9 -2 19t1 21q0 11 0.5 22t-0.5 21q0 8 6 14t14 6h28q7 0 12.5 -4.5t7.5 -12.5q3 -16 1 -41q0 -11 -0.5 -21t-1.5 -19q-2 -6 -7 -13.5t-12 -7.5h-27z
M92 -196q-16 0 -20 16q-2 9 -2 19t1 21q0 11 0.5 22t0.5 21q0 8 6 14t14 6h28q7 0 12.5 -4.5t6.5 -12.5q2 -9 2 -19t-1 -21q0 -11 -0.5 -22t0.5 -20q0 -8 -6 -14t-14 -6h-28z" />
    <glyph glyph-name="daggerdbl" unicode="&#x2021;" 
d="M725 -39q-38 1 -82.5 14.5t-91.5 41.5q-9 -28 -24.5 -58.5t-34 -59t-39 -53.5t-40.5 -41h-89q30 29 60.5 66.5t55 79t39.5 83.5t15 80v355v16h-411q-13 0 -20.5 7.5t-7.5 19.5q0 14 9 23.5t21 10.5l410 2v184h-312q-9 0 -16.5 8.5t-7.5 22.5t7.5 23t17.5 9h387h244
q9 0 16.5 -8.5t6.5 -22.5q0 -14 -7.5 -23t-17.5 -9h-248v-183l404 3q11 0 19.5 -8.5t8.5 -20.5q0 -14 -9 -24.5t-20 -10.5l-403 -2v-368v-26q32 -29 69.5 -48.5t91.5 -25.5q0 -20 0.5 -30.5t0.5 -15.5v-6l-2 -5v0z" />
    <glyph glyph-name="guilsinglleft" unicode="&#x2039;" 
d="M447 261q0 -11 -3 -15.5t-16 -4.5q-2 0 -4.5 1t-4.5 2l-298 121q-25 11 -45 33t-24 48q-2 11 6 23t18 18l203 129h4q9 0 18.5 -6t18 -14.5t14.5 -18.5t7 -19q1 -5 -5 -10t-10 -7l-204 -115l280 -107q10 -4 18.5 -8t16.5 -10q2 -3 6 -13t4 -13v-15v1z" />
    <glyph glyph-name="OE" unicode="&#x152;" 
d="M1182 733q-16 0 -42.5 -2t-57.5 -6t-64 -10t-63 -14t-53.5 -18t-35.5 -22q-35 -35 -53 -82.5t-18 -97.5v-125l377 -1q8 0 15 -7.5t7 -21.5t-7.5 -23t-16.5 -9h-374q0 -30 0.5 -55t0.5 -47v-43v-43q1 -51 19 -95t54 -80q19 -18 61 -32.5t90 -24.5t93.5 -15.5t69.5 -5.5
q19 0 30.5 -9.5t13 -20.5t-9 -20.5t-36.5 -9.5q-33 0 -85.5 6t-106 17.5t-100 29t-69.5 40.5q-14 14 -27.5 31t-30.5 44q-17 -28 -30.5 -46.5t-28.5 -34.5q-15 -15 -39.5 -28t-55.5 -23.5t-65.5 -18.5t-68.5 -14h-41q-35 6 -70 14t-66.5 18.5t-57 23t-40.5 27.5
q-91 94 -93 230l-2 370q-1 69 21.5 132t70.5 111q16 16 43 29t60.5 24t70.5 19t73 13l27 -1q35 -6 69.5 -14t65 -19t55 -23.5t39.5 -27.5q16 -16 30 -34.5t31 -48.5q16 26 28.5 41.5t26.5 29.5q24 23 71.5 40.5t102 29.5t107.5 18t86 6q22 0 31 -10.5t8 -24.5t-11 -25
t-29 -11zM648 670q-12 12 -33.5 22t-49 18t-58 14.5t-60.5 10.5q-30 -4 -61 -10.5t-58 -14.5t-48.5 -17.5t-32.5 -21.5q-37 -37 -54.5 -87.5t-17.5 -103.5l3 -373q0 -53 18 -98.5t55 -82.5q9 -10 35 -20t57 -19.5t62 -17.5t51 -12q30 5 60.5 12t57.5 15.5t48 19t33 22.5
q72 72 72 179v6l-2 362v6q0 53 -19.5 103.5t-56.5 88.5z" />
    <glyph glyph-name="quoteleft" unicode="&#x2018;" 
d="M149 902q-3 -6 -6.5 -12.5t-6.5 -13.5q-8 -14 -14 -29.5t-3 -30.5q1 -8 10 -13l5 -4q4 -2 6.5 -5t3.5 -9q2 -10 2 -21v-21t-0.5 -21t-0.5 -20q0 -7 -6 -12t-14 -5h-24q-6 0 -11 4.5t-7 10.5q-2 9 -2 20v24q1 11 1.5 22t1.5 20q0 22 3.5 38t10.5 30t16 28.5t20 33.5
q5 7 13 7q2 0 4 -1t1 -2q2 -6 -3 -18z" />
    <glyph glyph-name="quoteright" unicode="&#x2019;" 
d="M126 754q-7 -14 -16 -28.5t-20 -33.5q-5 -7 -13 -7q-6 0 -6 3q-1 6 3 18q3 6 6.5 12.5t7.5 14.5q8 14 14 29.5t3 29.5q-1 8 -10 13l-5 4q-4 2 -6.5 5t-4.5 9q-3 17 -1 42q0 11 0.5 21t0.5 20q0 7 5.5 12t13.5 5h24q6 0 11 -4.5t7 -10.5q2 -9 2 -20v-24q-1 -11 -1.5 -22
t-0.5 -20q0 -22 -3.5 -38t-10.5 -30z" />
    <glyph glyph-name="quotedblleft" unicode="&#x201c;" 
d="M282 671q-9 0 -17 8q-17 19 -31.5 33.5t-26.5 28.5t-21 30t-16 38q-4 10 -9 21t-10 23q-5 11 -8 22t-5 21q-1 5 2 9t8 4h25q8 0 16.5 -5.5t10.5 -14.5l8 -20t9 -21q4 -11 7.5 -21t5.5 -21q1 -8 -6 -13l-3 -2q-8 -7 -6 -14q2 -11 9 -22.5t16 -22.5t18.5 -21.5t16.5 -19.5
q10 -13 10 -18v-1q0 -1 -2 -1h-1zM173 671q-9 0 -17 8q-17 19 -31.5 33.5t-26.5 28.5t-21 30t-16 38q-4 10 -9 21t-10 23q-5 11 -8 22t-5 21q-1 5 2 9t8 4h25q8 0 16.5 -5.5t10.5 -14.5l8 -20t9 -21q4 -11 7.5 -21t5.5 -21q1 -8 -6 -13l-3 -2q-8 -7 -6 -14q2 -11 9 -22.5
t16 -22.5t18.5 -21.5t16.5 -19.5q10 -13 10 -18v-1q0 -1 -2 -1h-1z" />
    <glyph glyph-name="quotedblright" unicode="&#x201d;" 
d="M241 740q-7 -14 -16 -28.5t-20 -33.5q-5 -7 -13 -7q-6 0 -6 3q-1 6 3 18q3 6 6.5 12.5t7.5 13.5q8 14 14 29.5t3 30.5q-1 8 -10 13l-5 3q-4 2 -6.5 5t-4.5 9q-3 17 -1 42q0 11 0.5 21t0.5 21q0 7 5.5 12t13.5 5h24q14 0 18 -16q2 -9 2 -20v-23q-1 -11 -1.5 -22t-0.5 -21
q0 -22 -3.5 -37.5t-10.5 -29.5zM133 740q-7 -14 -16 -28.5t-20 -33.5q-5 -7 -13 -7q-6 0 -6 3q-1 6 3 18q3 6 6.5 12.5t7.5 13.5q8 14 14 29.5t3 30.5q-1 8 -10 13l-5 3q-4 2 -6.5 5t-4.5 9q-3 17 -1 42q0 11 0.5 21t0.5 21q0 7 5.5 12t13.5 5h24q14 0 18 -16q2 -9 2 -20
v-23q-1 -11 -1.5 -22t-0.5 -21q0 -22 -3.5 -37.5t-10.5 -29.5z" />
    <glyph glyph-name="bullet" unicode="&#x2022;" 
d="M89 285q-9 0 -16 6t-9 14q-2 11 -2 24v27q1 14 1.5 26.5t0.5 23.5t7 18t18 7h33q9 0 16.5 -6t9.5 -14q2 -11 2 -24v-26q-1 -14 -1.5 -27t-0.5 -24t-7 -18t-18 -7h-34z" />
    <glyph glyph-name="guilsinglright" unicode="&#x203a;" 
d="M120 243q-6 -2 -9 -2q-13 0 -18.5 5t-8.5 16q-2 4 -3 7.5t-3 7.5q-1 2 0 11.5t2 12.5q6 6 13 10t15 8l243 108l-243 114q-5 2 -13 7.5t-10 11.5q-1 9 1 18.5t7 18t12.5 13.5t15.5 5h6l247 -129q12 -6 25.5 -18.5t15.5 -23.5q5 -25 -7.5 -46.5t-33.5 -31.5z" />
    <glyph glyph-name="oe" unicode="&#x153;" 
d="M1196 309q-9 0 -11 -1h-12h-372v-197q0 -105 71 -176q12 -12 35.5 -22.5t53 -19t62 -15.5t63.5 -11.5t57 -7t43 -2.5q18 0 30.5 -9.5t14.5 -20.5t-8 -20.5t-36 -9.5q-33 0 -85.5 6t-106.5 17.5t-101 29t-70 41.5q-17 17 -32.5 38t-33.5 53q-17 -35 -32.5 -57t-34.5 -41
q-14 -15 -38.5 -27.5t-55 -23t-65 -18.5t-68.5 -14h-42q-34 6 -69.5 14t-66.5 18.5t-56.5 23.5t-40.5 28q-94 97 -94 230v380q0 136 94 230q15 16 42 29t60 24t70 19t73 13l27 -1q35 -6 69.5 -14t65.5 -19t55.5 -24t39.5 -28q19 -19 35 -41.5t34 -58.5q17 32 31.5 51.5
t31.5 36.5q23 23 70.5 40.5t102 29.5t107.5 18t86 6q1 0 2 -1q3 1 4 1q2 0 4 1q14 0 23 -9.5t9 -22.5v-442q0 -24 -35 -24zM1166 735q-35 -2 -79.5 -8t-87 -15t-77.5 -21.5t-51 -28.5q-32 -32 -48 -63.5t-22 -65.5q-3 -17 -4 -35t-1 -37t0.5 -40.5t0.5 -50.5h368v365h1z
M715 496q0 105 -73 178q-12 12 -33.5 21.5t-48.5 17.5t-57.5 14.5t-60.5 10.5q-30 -4 -60.5 -10.5t-58 -14.5t-49 -18t-33.5 -22q-74 -74 -74 -179v-385q0 -107 72 -179q10 -11 36 -21t57 -19t61.5 -16t48.5 -11q30 5 60.5 11.5t57.5 15t49 18.5t34 22q72 74 72 182v384v0z
" />
    <glyph glyph-name="exclamdown" unicode="&#xa1;" horiz-adv-x="417" 
d="M166 953q-7 0 -12.5 4.5t-7.5 12.5q-2 9 -2 19t1 21q0 11 0.5 22t0.5 20q0 8 6 14t14 6h28q7 0 12.5 -4.5t6.5 -11.5q2 -9 2 -19t-1 -21q0 -11 -0.5 -22t0.5 -21q0 -8 -6 -14t-14 -6h-28zM216 -171q0 -14 -10.5 -23t-24.5 -9q-12 0 -22 7.5t-12 19.5v5v966h69v-966v0z
" />
    <glyph glyph-name="cent" unicode="&#xa2;" horiz-adv-x="741" 
d="M408 -337q0 -17 -8 -28t-18 -11q-9 0 -17 10t-8 27v1396q0 17 8 28t18 11q9 0 17 -10t8 -27v-1396v0zM569 734q-22 0 -64 -4t-86 -12.5t-83 -20.5t-56 -29q-67 -67 -67 -161v-417q0 -97 67 -163q17 -17 56 -30.5t83 -22.5t85.5 -14t64.5 -5q17 0 27.5 -8.5t11.5 -18.5
t-8.5 -18.5t-32.5 -8.5q-31 0 -78.5 5.5t-97 16t-92.5 26.5t-64 37q-85 85 -85 205v415q0 121 86 206q21 21 65 37.5t93.5 27t98 15.5t78.5 5q20 0 28 -9.5t8 -20.5q-1 -12 -10.5 -22.5t-26.5 -10.5h-1z" />
    <glyph glyph-name="sterling" unicode="&#xa3;" horiz-adv-x="1101" 
d="M991 -109q-89 -88 -215 -86l-364 4q-32 1 -60 6.5t-49 13.5q-11 3 -19.5 6t-15.5 5l-10 4h-4q-15 17 -22.5 46.5t-9.5 65.5t-1 72t1 64v647h-82q-11 0 -18 7.5t-7 18.5t8 19t19 8h80q0 33 -0.5 59t-0.5 50q1 23 2.5 45.5t5.5 43.5q8 42 26 80.5t55 75.5q15 15 41 27
t57.5 22t67 17.5t69.5 12.5t64 7.5t51 2.5q20 0 28.5 -10t7.5 -21q0 -13 -9.5 -24t-28.5 -11q-24 0 -67 -4.5t-89 -13t-86.5 -21t-57.5 -29.5q-70 -70 -70 -168v-138h343q8 0 14.5 -7.5t6.5 -20.5q0 -14 -7 -22.5t-15 -8.5h-342v-621q0 -27 -0.5 -54.5t4.5 -56.5
q4 -30 15 -61.5t34 -66.5q22 -11 68 -18t104.5 -8.5t124 3t125.5 15.5t109 28.5t75 42.5q17 17 30.5 57t23 85.5t14.5 89t6 66.5q0 19 11 28.5t25 10.5q11 0 21 -8.5t9 -29.5q0 -21 -3 -51t-8.5 -64t-13.5 -69t-18.5 -66.5t-23.5 -57t-28 -40.5z" />
    <glyph glyph-name="yen" unicode="&#xa5;" horiz-adv-x="209" 
d="M362 118v73v99v113v116q0 135 -1 287h69q-1 -3 -1.5 -23.5t-0.5 -53.5v-76v-91v-370l290 594q4 8 11.5 12.5t15.5 6.5q-5 -9 -2.5 -4.5t4.5 4.5q26 4 61.5 -2.5t71.5 -20.5t68.5 -33t53.5 -40q97 -96 95 -230v-137q0 -83 0.5 -178t1 -192t0.5 -177h-72q-3 150 -5 286
q-1 58 -1.5 118t-1.5 115.5t-1.5 102.5t-0.5 79q0 99 -68 165q-30 30 -76.5 52.5t-102.5 27.5q-20 -37 -52.5 -105t-72.5 -150t-84 -170t-86 -166t-79 -138.5t-63 -86.5q-22 -23 -50 -46t-58 -41.5t-60 -30.5t-57 -12q-2 0 1.5 1.5t1.5 1.5q-2 1 -5 9q-2 7 -3.5 21.5
t-1.5 41.5q59 5 98 26t70 51q24 24 39 41t24.5 35t15.5 40t13 54z" />
    <glyph glyph-name="section" unicode="&#xa7;" horiz-adv-x="915" 
d="M868 735h-51t-82.5 0.5t-97.5 0.5h-96l26 -1q-43 -1 -88.5 -21t-77.5 -65q26 0 69 -0.5t87 -0.5h83h57l-1 -64q-11 0 -35.5 0.5t-55 1.5t-64.5 1.5t-65 0.5h-57q-25 0 -39 -1q-11 -40 -17 -80.5t-8 -81.5h502q11 0 17 -6l2 -2q4 -4 7 -11.5t3 -21.5q0 -29 -5 -80
t-15 -104.5t-25 -100t-35 -66.5q-56 -56 -133 -74q-19 -55 -37 -73q-80 -80 -190 -81l-298 -2l3 61h326l-25 1q87 2 147 62q2 2 5 6.5t12 19.5q-37 0 -82.5 -0.5t-87.5 -1t-76.5 -1t-51.5 -0.5v64h40t62.5 -0.5t71.5 -0.5h68h52h24q13 54 20.5 111t9.5 102l-112 -1h-4
l-386 1q-11 0 -17 6l-2 1q-4 4 -7 11.5t-3 21.5q0 29 4.5 72t14 87.5t24.5 83t35 58.5q55 55 130 73q18 52 40 75q81 81 193 80q30 0 72.5 -0.5t85.5 -0.5h79h53l2 -59v0zM334 373q-11 0 -17 6l-2 2q-4 4 -7 11.5t-3 20.5q0 26 4.5 66t15.5 97q-30 -15 -46.5 -26t-28.5 -24
q-14 -14 -25.5 -42.5t-19.5 -63t-13 -72t-7 -70.5l502 -1q10 0 17 -5l2 -2q4 -4 7 -11.5t3 -20.5q0 -30 -6 -86.5t-21 -129.5q32 15 49 26.5t31 24.5q14 15 25.5 51t20 80.5t14 90t7.5 78.5h-116h-386z" />
    <glyph glyph-name="copyright" unicode="&#xa9;" horiz-adv-x="1029" 
d="M829 -195q-155 0 -309 -0.5t-309 -0.5q-9 0 -18.5 0.5t-17.5 3.5q-20 5 -24 22v6q-3 127 -1.5 251.5t1.5 250.5v268v164q0 11 7 18t18 7h666q19 0 25 -12.5t6 -27.5v-892q0 -25 -9.5 -41.5t-35.5 -16.5h1zM815 706q0 8 -1 13q-2 14 -10.5 16.5t-17.5 2.5h-541
q-15 0 -24.5 -5.5t-9.5 -23.5l1 -796v-12q6 -37 43 -37l512 1q20 0 34 8t14 31v802v0zM647 -32q-20 0 -53 3.5t-67.5 11t-65 19t-45.5 26.5q-29 29 -50.5 70.5t-21.5 83.5v225q0 22 6 45t15.5 45t22.5 41t27 32q15 15 44.5 24.5t63.5 15.5t68 8.5t58 2.5q13 0 18.5 -8.5
t5.5 -18.5q0 -9 -6 -17.5t-17 -8.5q-18 0 -47.5 -3t-60 -9t-57.5 -14.5t-39 -20.5q-23 -22 -35.5 -51t-12.5 -63v-227q0 -15 3 -30q8 -49 44 -85q12 -12 39.5 -21.5t58.5 -16t60 -10t44 -3.5q11 0 18.5 -7t8.5 -16t-5 -16t-22 -7z" />
    <glyph glyph-name="ordfeminine" unicode="&#xaa;" horiz-adv-x="333" 
d="M690 -111q-15 -15 -38 -27t-49 -21.5t-52.5 -16.5t-48.5 -12l-10 -2t-11 -2q-10 -3 -20 -3q-11 0 -21 -0.5t-21 0.5q-20 1 -53.5 8.5t-68 19t-65.5 26t-46 30.5q-36 36 -58.5 79t-30.5 89q-6 32 -6 63l1 359q0 69 23.5 127t68.5 104q16 16 41.5 28.5t54.5 22t58.5 16.5
t53.5 11l10 2t10 3q5 1 10 1.5t10 0.5h27q21 -1 53.5 -9t66.5 -19.5t64 -26t46 -30.5q36 -36 58.5 -79t30.5 -90q6 -31 6 -62v-360q0 -69 -24.5 -127t-69.5 -103zM180 -269q-10 0 -17 6t-9 15q-3 17 3.5 29.5t22.5 12.5h575q22 0 24 -22q3 -17 -3 -29.5t-21 -12.5zM713 478
q0 24 -3 48q-7 36 -24.5 70t-46.5 63q-12 12 -40 23.5t-59 20.5t-59.5 14.5t-43.5 5.5q-16 0 -45.5 -6t-60 -15t-57 -20.5t-38.5 -22.5q-35 -35 -54.5 -80.5t-19.5 -99.5v-364q0 -12 1 -24t4 -24q6 -35 23 -69.5t45 -62.5q11 -11 39 -22t59.5 -20t61.5 -16t46 -10
q20 3 48.5 9t57 14.5t54 19t39.5 24.5q35 35 54 81.5t19 100.5v363v-1z" />
    <glyph glyph-name="guillemotleft" unicode="&#xab;" horiz-adv-x="750" 
d="M737 261q0 -11 -3 -15.5t-16 -4.5q-2 0 -4.5 1t-4.5 2l-298 121q-25 11 -45 33t-24 48q-2 11 6 23t18 18l203 129h4q9 0 18.5 -6t18 -14.5t14.5 -18.5t7 -19q1 -5 -5 -10t-10 -7l-204 -115l280 -107q10 -4 18.5 -8t16.5 -10q2 -3 6 -13t4 -13v-15v1zM455 262
q0 -11 -3 -15.5t-16 -4.5q-2 0 -4.5 1t-4.5 2l-298 121q-25 11 -45 33t-24 48q-2 11 6 23t18 18l203 129h4q9 0 18.5 -6t18 -14.5t14 -18.5t6.5 -19q1 -5 -5 -10t-10 -7l-204 -115l280 -107q10 -4 18.5 -8t16.5 -10q2 -3 6 -13t5 -13v-15v1z" />
    <glyph glyph-name="registered" unicode="&#xae;" horiz-adv-x="1275" 
d="M142 302q-10 0 -22.5 2t-15.5 16v5v729q0 7 4.5 12t12.5 5h525q14 0 18 -8.5t4 -19.5v-699q0 -17 -6.5 -29t-22.5 -12zM635 1013q0 6 -1 9q-2 11 -8.5 13t-13.5 2h-449q-11 0 -18.5 -4t-7.5 -18v-642q0 -6 1 -9q2 -11 10 -19.5t21 -8.5l431 -1q14 0 24.5 7t10.5 24v647v0
zM259 598v-4v-121l-27 1q0 19 -1 40t0 42q0 23 2.5 44.5t10.5 39.5l-1 278l168 2q58 1 96 -34.5t49 -92.5q0 -5 -1 -8v-11q0 -10 -4 -24.5t-9.5 -29.5t-12.5 -28t-14 -20q-25 -23 -60 -36v-18t2 -18q5 -32 27.5 -67t48.5 -60l-34 1q-12 10 -23 23.5t-21 29t-16.5 31
t-9.5 29.5q-1 5 -1 9v9v25q-11 -1 -35.5 -0.5t-51.5 1.5q-29 0 -51.5 -2.5t-23.5 -5.5q-4 -12 -6 -26zM269 894v-236h143q32 0 52.5 10.5t33.5 27.5t20.5 40.5t12.5 48.5q-8 48 -38.5 78.5t-81.5 30.5h-142z" />
    <glyph glyph-name="paragraph" unicode="&#xb6;" horiz-adv-x="792" 
d="M768 5q-42 1 -89.5 19.5t-81.5 53.5l-19 19q0 -37 -3.5 -65.5t-12 -52.5t-22.5 -44t-34 -40q-18 -18 -39.5 -31.5t-45 -22.5t-47.5 -13.5t-45 -4.5q-2 -5 -0.5 -10.5t12.5 -5.5q-2 -2 -2 -3l1 1q4 2 5 5q2 5 1 10t-11 6q1 0 1 4t0.5 12t0.5 23q46 5 77 22.5t56 41.5
q56 56 58 142v212h-244v-445q0 -14 -7.5 -23.5t-17.5 -9.5q-8 0 -15.5 8.5t-7.5 22.5v452q-42 9 -74 26t-59 43q-12 12 -23 31t-20.5 43t-16.5 51t-12 55v34q9 54 28.5 90t44.5 60q77 75 183 74l296 -4q-1 -23 -1.5 -74t-0.5 -117q0 -42 -0.5 -89t-1 -95t-1 -95t-0.5 -91
q8 -69 57 -117q25 -24 56 -41.5t78 -22.5q0 -14 0.5 -22t0.5 -12v-5l-2 -5v0zM284 337l244 1v403h-244v-404zM138 682q-19 -18 -35.5 -48t-25.5 -78q3 -15 10 -38.5t15.5 -47.5t18 -44.5t18.5 -28.5q19 -19 42 -32t55 -23v394q-35 -10 -57.5 -22.5t-40.5 -30.5v-1z" />
    <glyph glyph-name="ordmasculine" unicode="&#xba;" horiz-adv-x="333" 
d="M783 121q0 -135 -94 -232q-15 -15 -39.5 -28t-55.5 -23.5t-65.5 -18.5t-68.5 -14h-42q-35 6 -70 14t-66.5 18.5t-56.5 23.5t-40 28q-94 95 -94 230v359q0 137 94 232q16 16 43 29t60.5 24t71 19t73.5 13l27 -1q35 -6 69.5 -14t65.5 -19t55.5 -23.5t39.5 -27.5
q93 -94 93 -230v-359v0zM780 -240q0 -13 -7.5 -21.5t-18.5 -8.5l-576 1q-11 0 -17.5 7.5t-6.5 19.5q0 16 6 26t20 10h576q11 0 17.5 -7.5t6.5 -19.5v-7v0zM638 658q-12 12 -33.5 22t-49 18t-58.5 14.5t-61 10.5q-30 -4 -61 -10.5t-58 -14.5t-48.5 -17.5t-32.5 -21.5
q-74 -74 -74 -179v-364q0 -107 72 -181q10 -10 36 -20t57 -19.5t62.5 -17.5t51.5 -12q30 5 60.5 12t57.5 15.5t48 18.5t33 22q72 74 72 181l1 364q0 106 -75 179z" />
    <glyph glyph-name="guillemotright" unicode="&#xbb;" horiz-adv-x="885" 
d="M402 243q-6 -2 -8 -2q-13 0 -18.5 5t-9.5 16q-2 4 -2.5 7.5t-2.5 7.5q-1 2 0 11.5t1 12.5q6 6 13 10t15 8l244 108l-244 114q-5 2 -13 7.5t-10 11.5q-1 9 1 18.5t7 18t12.5 13.5t15.5 5h6l247 -129q12 -6 25.5 -18.5t15.5 -23.5q5 -25 -7.5 -46.5t-32.5 -31.5zM120 243
q-6 -2 -9 -2q-13 0 -18.5 5t-8.5 16q-2 4 -3 7.5t-3 7.5q-1 2 0 11.5t2 12.5q6 6 13 10t15 8l243 108l-243 114q-5 2 -13 7.5t-10 11.5q-1 9 1 18.5t7 18t12.5 13.5t15.5 5h6l247 -129q12 -6 25.5 -18.5t15.5 -23.5q5 -25 -7.5 -46.5t-33.5 -31.5z" />
    <glyph glyph-name="questiondown" unicode="&#xbf;" horiz-adv-x="953" 
d="M366 621q-9 0 -16.5 3.5t-9.5 11.5q-2 10 -2 28q0 19 1 39q0 21 0.5 40.5t1.5 30.5q0 10 6.5 15.5t17.5 5.5h10q9 0 16 -4t9 -12q2 -10 2 -29q0 -18 -1 -38q0 -21 -0.5 -40.5t-0.5 -30.5q0 -21 -25 -21zM262 -195q-25 0 -48.5 8.5t-42.5 24t-31.5 36.5t-16.5 47
q-3 16 -4 41t0 53q0 28 0.5 54.5t0.5 44.5q0 30 9 52t24 39t34 30.5t40 25.5t41 25t36 29t26.5 37t10.5 49q0 8 -0.5 16t-1.5 16q-1 21 4.5 32t31.5 10q9 0 16 -4t9 -12q3 -15 1 -36q0 -10 -0.5 -19.5t-0.5 -17.5q0 -48 -22 -77.5t-58 -55.5q-11 -8 -23 -16t-23 -16
q-11 -7 -20.5 -13t-17.5 -11q-8 -6 -15.5 -12t-13.5 -13q-13 -14 -19.5 -33.5t-6.5 -49.5q0 -33 -3 -68q0 -18 1 -35.5t5 -33.5q6 -33 21 -52t36 -28.5t46 -11.5t49 -1q25 1 48 3t42 0q19 -1 29.5 -6t12.5 -17q2 -14 -3.5 -24t-19.5 -10h-183z" />
    <glyph glyph-name="AE" unicode="&#xc6;" horiz-adv-x="458" 
d="M1121 722q-17 0 -43 -2t-57 -6t-64 -10t-62 -14t-52.5 -18t-35.5 -22q-32 -31 -47 -63.5t-20 -68.5q-3 -17 -4 -35t-2 -38q0 -19 0.5 -40.5t0.5 -51.5h375q8 0 15 -8t8 -23q0 -14 -7.5 -22.5t-16.5 -8.5h-374v-172q0 -51 18 -96t54 -81q19 -18 61 -34t90.5 -28t93.5 -19
t70 -7q19 0 30.5 -9t13 -20.5t-8.5 -20.5t-36 -9q-33 0 -85.5 7.5t-106.5 21t-101.5 32.5t-70.5 43q-4 4 -9.5 10t-22.5 26q1 -25 1.5 -36.5t0.5 -21.5q1 -9 1.5 -19t-0.5 -20q-2 -20 -9 -31t-24 -11q-13 0 -21.5 8.5t-8.5 21.5l-2 478h-438v-173v-84t-0.5 -97t-0.5 -87v-54
l-68 -5v35v89l-1 131l-1 418q0 66 22.5 124t70.5 106q16 16 47.5 28.5t71.5 23t85.5 18.5t88 13t78.5 7.5t58 2.5q20 0 34 -8.5t14 -25.5v-104q17 20 23 26t10 11q23 23 70.5 40.5t102.5 29t107.5 17.5t86.5 6q21 0 30 -10.5t8 -23.5q-1 -14 -11 -25t-30 -11zM296 663
q-36 -35 -53.5 -82t-17.5 -98v-117h438v375q-26 -2 -60 -5t-71 -8t-74.5 -11.5t-69.5 -15t-56.5 -18t-35.5 -20.5z" />
    <glyph glyph-name="Oslash" unicode="&#xd8;" 
d="M777 121q0 -135 -94 -232q-15 -15 -39.5 -28t-55.5 -23.5t-65.5 -18.5t-68.5 -14h-42q-52 8 -103.5 21t-89.5 35q-9 3 -16 8q-8 5 -13.5 10t-10.5 10q-94 95 -94 230v359q0 137 94 232q16 16 43 29t60.5 24t71 19t73.5 13l27 -1q35 -6 69.5 -14t65.5 -19t55.5 -23.5
t39.5 -27.5q2 -2 4 -4.5t5 -5.5q11 -7 14 -17q38 -42 54 -93t16 -110v-359v0zM430 723q-30 -4 -61 -10.5t-58 -14.5t-48.5 -17.5t-32.5 -21.5q-74 -74 -74 -179l-1 -363q0 -46 15.5 -88t50.5 -86l413 715q-16 13 -39.5 23.5t-50.5 18t-56 13.5t-58 10zM273 -89
q47 -17 91.5 -28t70.5 -17q30 5 60.5 12t57.5 15.5t48 18.5t33 22q72 74 72 181l1 363q0 29 -7 58.5t-26 68.5z" />
    <glyph glyph-name="germandbls" unicode="&#xdf;" horiz-adv-x="986" 
d="M140 498q0 2 1 2q0 63 25 116t67 93q16 15 45 28t65.5 23.5t78 18.5t81 13.5t74.5 8.5t60 3q7 0 20.5 -0.5t28.5 -1.5t29 -2t20 -3v-233q0 -34 -6 -59.5t-18 -47t-29.5 -41t-39.5 -41.5q-17 -17 -37 -32t-48 -30q72 -38 116.5 -98t55.5 -129q6 -30 6 -60l1 -219
q-14 -4 -39.5 -5.5t-41.5 -1.5q-8 0 -28.5 1.5t-46.5 4t-55 6t-54.5 7t-45 6.5t-26.5 6t-9 6.5t-3 11.5q-1 5 -1 13t1.5 15t5.5 12t11 5q8 0 17 -1t18 -3q10 -2 19.5 -3.5t18.5 -2.5q45 -7 92 -14t95 -9q0 26 1 53l2 54q0 28 -1 54.5t-5 48.5q-8 44 -31 81.5t-56 64.5
t-73.5 42.5t-83.5 15.5q-15 0 -28.5 9t-16.5 24q-3 18 11.5 31t33.5 13q54 0 96.5 19.5t77.5 52.5l15.5 15.5t14.5 15.5q7 7 13 14t11 15q10 16 15 35t5 45v180q-21 -1 -54 -3.5t-71 -7.5t-78.5 -12t-75.5 -15.5t-62.5 -19t-40.5 -22.5q-35 -33 -54 -79t-19 -97l-2 -578
q0 -69 1 -136.5t-1 -135.5h-13h-19t-19 3q-8 2 -13 7t-7 16q-7 84 -8.5 163.5t0.5 158t5 158t3 163.5v76q0 39 2 77v32l1 6v0z" />
    <glyph glyph-name="oslash" unicode="&#xf8;" horiz-adv-x="792" 
d="M817 105q0 -134 -94 -231q-14 -15 -38.5 -27.5t-55 -23t-65 -18.5t-68.5 -14h-42q-35 6 -70.5 14t-67 18.5t-57 23.5t-40.5 28q-94 97 -94 232v388q0 136 94 230q15 16 42 29t60.5 24t70.5 19t73 13l28 -1q35 -6 69.5 -14t65.5 -19t55.5 -24t39.5 -28q94 -95 94 -231
v-388v0zM746 495q0 104 -73 179q-12 12 -33.5 21.5t-48.5 17.5t-58 14.5t-61 10.5q-30 -4 -61 -10.5t-58.5 -14.5t-49 -18t-33.5 -22q-74 -76 -74 -180v-392q0 -53 18 -98.5t55 -82.5q10 -11 36 -21t57 -19t61.5 -16.5t49.5 -11.5q30 5 60.5 12t57.5 15.5t49 19t34 22.5
q72 73 72 182v392v0zM475 208q-21 0 -39.5 8t-32.5 22t-22 32.5t-8 39.5t8 39t21.5 31.5t32 21.5t39.5 8t39.5 -8t32.5 -22t22 -32.5t8 -39.5t-8 -39t-21.5 -31.5t-32 -21.5t-39.5 -8zM474 376q-27 0 -46.5 -19.5t-19.5 -46.5t19 -46t46 -20q27 0 46.5 19.5t19.5 46.5
t-19 46t-45 19z" />
    <glyph glyph-name="nonbreakingspace" horiz-adv-x="552" 
 />
    </font>
</defs>
</svg>
