<svg width="1440" height="470" viewBox="0 0 1440 470" fill="none" xmlns="http://www.w3.org/2000/svg">
<path d="M0 280L24 258.453C48 236.906 96 193.812 144 193.812C192 193.812 240 236.906 288 251.271C336 265.635 384 251.271 432 215.359C480 179.447 528 121.988 576 71.7114C624 21.4348 672 -21.6594 720 14.2524C768 50.1643 816 165.082 864 186.629C912 208.176 960 136.353 1008 86.0761C1056 35.7995 1104 7.07005 1152 50.1643C1200 93.2585 1248 208.176 1296 244.088C1344 280 1392 236.906 1416 215.359L1440 193.812" stroke="#ED0BD9"/>
<path d="M0 307L24 285.453C48 263.906 96 220.812 144 220.812C192 220.812 240 263.906 288 278.271C336 292.635 384 278.271 432 242.359C480 206.447 528 148.988 576 98.7114C624 48.4348 672 5.34058 720 41.2524C768 77.1643 816 192.082 864 213.629C912 235.176 960 163.353 1008 113.076C1056 62.7995 1104 34.0701 1152 77.1643C1200 120.258 1248 235.176 1296 271.088C1344 307 1392 263.906 1416 242.359L1440 220.812" stroke="#ED0BD9"/>
<path d="M0 334L24 312.453C48 290.906 96 247.812 144 247.812C192 247.812 240 290.906 288 305.271C336 319.635 384 305.271 432 269.359C480 233.447 528 175.988 576 125.711C624 75.4348 672 32.3406 720 68.2524C768 104.164 816 219.082 864 240.629C912 262.176 960 190.353 1008 140.076C1056 89.7995 1104 61.0701 1152 104.164C1200 147.258 1248 262.176 1296 298.088C1344 334 1392 290.906 1416 269.359L1440 247.812" stroke="#ED0BD9"/>
<path d="M0 361L24 339.453C48 317.906 96 274.812 144 274.812C192 274.812 240 317.906 288 332.271C336 346.635 384 332.271 432 296.359C480 260.447 528 202.988 576 152.711C624 102.435 672 59.3406 720 95.2524C768 131.164 816 246.082 864 267.629C912 289.176 960 217.353 1008 167.076C1056 116.8 1104 88.0701 1152 131.164C1200 174.258 1248 289.176 1296 325.088C1344 361 1392 317.906 1416 296.359L1440 274.812" stroke="#ED0BD9"/>
<path d="M0 388L24 366.453C48 344.906 96 301.812 144 301.812C192 301.812 240 344.906 288 359.271C336 373.635 384 359.271 432 323.359C480 287.447 528 229.988 576 179.711C624 129.435 672 86.3406 720 122.252C768 158.164 816 273.082 864 294.629C912 316.176 960 244.353 1008 194.076C1056 143.8 1104 115.07 1152 158.164C1200 201.258 1248 316.176 1296 352.088C1344 388 1392 344.906 1416 323.359L1440 301.812" stroke="#ED0BD9"/>
<path d="M0 415L24 393.453C48 371.906 96 328.812 144 328.812C192 328.812 240 371.906 288 386.271C336 400.635 384 386.271 432 350.359C480 314.447 528 256.988 576 206.711C624 156.435 672 113.341 720 149.252C768 185.164 816 300.082 864 321.629C912 343.176 960 271.353 1008 221.076C1056 170.8 1104 142.07 1152 185.164C1200 228.258 1248 343.176 1296 379.088C1344 415 1392 371.906 1416 350.359L1440 328.812" stroke="#ED0BD9"/>
<path d="M0 442L24 420.453C48 398.906 96 355.812 144 355.812C192 355.812 240 398.906 288 413.271C336 427.635 384 413.271 432 377.359C480 341.447 528 283.988 576 233.711C624 183.435 672 140.341 720 176.252C768 212.164 816 327.082 864 348.629C912 370.176 960 298.353 1008 248.076C1056 197.8 1104 169.07 1152 212.164C1200 255.258 1248 370.176 1296 406.088C1344 442 1392 398.906 1416 377.359L1440 355.812" stroke="#ED0BD9"/>
<path d="M0 469L24 447.453C48 425.906 96 382.812 144 382.812C192 382.812 240 425.906 288 440.271C336 454.635 384 440.271 432 404.359C480 368.447 528 310.988 576 260.711C624 210.435 672 167.341 720 203.252C768 239.164 816 354.082 864 375.629C912 397.176 960 325.353 1008 275.076C1056 224.8 1104 196.07 1152 239.164C1200 282.258 1248 397.176 1296 433.088C1344 469 1392 425.906 1416 404.359L1440 382.812" stroke="#ED0BD9"/>
</svg>
