<svg width="32" height="32" viewBox="0 0 32 32" fill="none" xmlns="http://www.w3.org/2000/svg">
<g style="mix-blend-mode:difference">
<rect x="0.5" y="8.5" width="31" height="15" rx="7.5" stroke="#E6E4D6"/>
<rect x="23.5" y="0.5" width="31" height="15" rx="7.5" transform="rotate(90 23.5 0.5)" stroke="#E6E4D6"/>
<path d="M20 2V19C20 19.5523 19.5523 20 19 20H2" stroke="#E6E4D6"/>
<path d="M12 30V13C12 12.4477 12.4477 12 13 12H30" stroke="#E6E4D6"/>
<path d="M1 16H31" stroke="#E6E4D6"/>
<path d="M16.0049 1.00488L16.0049 31.0049" stroke="#E6E4D6"/>
<g style="mix-blend-mode:difference">
<rect x="0.5" y="8.5" width="31" height="15" rx="7.5" stroke="#101010"/>
<rect x="23.5" y="0.5" width="31" height="15" rx="7.5" transform="rotate(90 23.5 0.5)" stroke="#101010"/>
<path d="M20 2V19C20 19.5523 19.5523 20 19 20H2" stroke="#101010"/>
<path d="M12 30V13C12 12.4477 12.4477 12 13 12H30" stroke="#101010"/>
<path d="M1 16H31" stroke="#101010"/>
<path d="M16.0049 1.00488L16.0049 31.0049" stroke="#101010"/>
</g>
</g>
</svg>
