<svg width="24" height="24" viewBox="0 0 24 24" fill="none" xmlns="http://www.w3.org/2000/svg">
<g style="mix-blend-mode:difference">
<path fill-rule="evenodd" clip-rule="evenodd" d="M11 5C11 4.44772 10.5523 4 10 4C9.44771 4 9 4.44772 9 5V21C9 21.5523 9.44771 22 10 22C10.5523 22 11 21.5523 11 21V5ZM19 8C19 7.44772 18.5523 7 18 7C17.4477 7 17 7.44772 17 8V18C17 18.5523 17.4477 19 18 19C18.5523 19 19 18.5523 19 18V8ZM7 9.8C7 9.24772 6.55228 8.8 6 8.8C5.44772 8.8 5 9.24772 5 9.8V15.8C5 16.3523 5.44772 16.8 6 16.8C6.55228 16.8 7 16.3523 7 15.8V9.8ZM13 10C13 9.44772 13.4477 9 14 9C14.5523 9 15 9.44772 15 10V16C15 16.5523 14.5523 17 14 17C13.4477 17 13 16.5523 13 16V10ZM21 11.8C21 11.2477 21.4477 10.8 22 10.8C22.5523 10.8 23 11.2477 23 11.8V13.8C23 14.3523 22.5523 14.8 22 14.8C21.4477 14.8 21 14.3523 21 13.8V11.8ZM3 11.8C3 11.2477 2.55228 10.8 2 10.8C1.44772 10.8 1 11.2477 1 11.8V13.8C1 14.3523 1.44772 14.8 2 14.8C2.55228 14.8 3 14.3523 3 13.8V11.8Z" fill="#E6E4D6"/>
<g style="mix-blend-mode:difference">
<path fill-rule="evenodd" clip-rule="evenodd" d="M11 5C11 4.44772 10.5523 4 10 4C9.44771 4 9 4.44772 9 5V21C9 21.5523 9.44771 22 10 22C10.5523 22 11 21.5523 11 21V5ZM19 8C19 7.44772 18.5523 7 18 7C17.4477 7 17 7.44772 17 8V18C17 18.5523 17.4477 19 18 19C18.5523 19 19 18.5523 19 18V8ZM7 9.8C7 9.24772 6.55228 8.8 6 8.8C5.44772 8.8 5 9.24772 5 9.8V15.8C5 16.3523 5.44772 16.8 6 16.8C6.55228 16.8 7 16.3523 7 15.8V9.8ZM13 10C13 9.44772 13.4477 9 14 9C14.5523 9 15 9.44772 15 10V16C15 16.5523 14.5523 17 14 17C13.4477 17 13 16.5523 13 16V10ZM21 11.8C21 11.2477 21.4477 10.8 22 10.8C22.5523 10.8 23 11.2477 23 11.8V13.8C23 14.3523 22.5523 14.8 22 14.8C21.4477 14.8 21 14.3523 21 13.8V11.8ZM3 11.8C3 11.2477 2.55228 10.8 2 10.8C1.44772 10.8 1 11.2477 1 11.8V13.8C1 14.3523 1.44772 14.8 2 14.8C2.55228 14.8 3 14.3523 3 13.8V11.8Z" fill="#101010"/>
</g>
</g>
</svg>
